<?xml version="1.0" encoding="UTF-8" standalone="no"?>
<!DOCTYPE svg PUBLIC "-//W3C//DTD SVG 1.1//EN"
 "http://www.w3.org/Graphics/SVG/1.1/DTD/svg11.dtd">
<!-- Generated by graphviz version 5.0.0 (20220707.1540)
 -->
<!-- Title: dependencies Pages: 1 -->
<svg width="1083pt" height="174pt"
 viewBox="0.00 0.00 1083.00 173.80" xmlns="http://www.w3.org/2000/svg" xmlns:xlink="http://www.w3.org/1999/xlink">
<g id="graph0" class="graph" transform="scale(1 1) rotate(0) translate(4 169.8)">
<title>dependencies</title>
<polygon fill="white" stroke="transparent" points="-4,4 -4,-169.8 1079,-169.8 1079,4 -4,4"/>
<text text-anchor="middle" x="537.5" y="-8.2" font-family="sans-serif" font-size="14.00">dependencies</text>
<g id="clust1" class="cluster">
<title>cluster_UsersModule</title>
<polygon fill="none" stroke="black" stroke-dasharray="1,5" points="8,-32.8 8,-157.8 1067,-157.8 1067,-32.8 8,-32.8"/>
</g>
<g id="clust6" class="cluster">
<title>cluster_UsersModule_providers</title>
<polygon fill="none" stroke="black" points="16,-40.8 16,-92.8 1059,-92.8 1059,-40.8 16,-40.8"/>
</g>
<!-- AuthService -->
<g id="node1" class="node">
<title>AuthService</title>
<ellipse fill="#fdb462" stroke="black" cx="992" cy="-66.8" rx="59.11" ry="18"/>
<text text-anchor="middle" x="992" y="-62.6" font-family="Times,serif" font-size="14.00">AuthService</text>
</g>
<!-- UsersModule -->
<g id="node8" class="node">
<title>UsersModule</title>
<polygon fill="#8dd3c7" stroke="black" points="588.94,-149.8 585.94,-153.8 564.94,-153.8 561.94,-149.8 497.06,-149.8 497.06,-113.8 588.94,-113.8 588.94,-149.8"/>
<text text-anchor="middle" x="543" y="-127.6" font-family="Times,serif" font-size="14.00">UsersModule</text>
</g>
<!-- AuthService&#45;&gt;UsersModule -->
<g id="edge1" class="edge">
<title>AuthService&#45;&gt;UsersModule</title>
<path fill="none" stroke="black" d="M992,-85.09C992,-107.01 992,-140.8 992,-140.8 992,-140.8 598.94,-140.8 598.94,-140.8"/>
<polygon fill="black" stroke="black" points="598.94,-137.3 588.94,-140.8 598.94,-144.3 598.94,-137.3"/>
</g>
<!-- CartsService -->
<g id="node2" class="node">
<title>CartsService</title>
<ellipse fill="#fdb462" stroke="black" cx="854" cy="-66.8" rx="60.26" ry="18"/>
<text text-anchor="middle" x="854" y="-62.6" font-family="Times,serif" font-size="14.00">CartsService</text>
</g>
<!-- CartsService&#45;&gt;UsersModule -->
<g id="edge2" class="edge">
<title>CartsService&#45;&gt;UsersModule</title>
<path fill="none" stroke="black" d="M854,-84.91C854,-104.14 854,-131.8 854,-131.8 854,-131.8 598.89,-131.8 598.89,-131.8"/>
<polygon fill="black" stroke="black" points="598.89,-128.3 588.89,-131.8 598.89,-135.3 598.89,-128.3"/>
</g>
<!-- DeliveryService -->
<g id="node3" class="node">
<title>DeliveryService</title>
<ellipse fill="#fdb462" stroke="black" cx="702" cy="-66.8" rx="73.56" ry="18"/>
<text text-anchor="middle" x="702" y="-62.6" font-family="Times,serif" font-size="14.00">DeliveryService</text>
</g>
<!-- DeliveryService&#45;&gt;UsersModule -->
<g id="edge3" class="edge">
<title>DeliveryService&#45;&gt;UsersModule</title>
<path fill="none" stroke="black" d="M702,-84.83C702,-101.2 702,-122.8 702,-122.8 702,-122.8 598.99,-122.8 598.99,-122.8"/>
<polygon fill="black" stroke="black" points="598.99,-119.3 588.99,-122.8 598.99,-126.3 598.99,-119.3"/>
</g>
<!-- PrismaService -->
<g id="node4" class="node">
<title>PrismaService</title>
<ellipse fill="#fdb462" stroke="black" cx="543" cy="-66.8" rx="66.64" ry="18"/>
<text text-anchor="middle" x="543" y="-62.6" font-family="Times,serif" font-size="14.00">PrismaService</text>
</g>
<!-- PrismaService&#45;&gt;UsersModule -->
<g id="edge4" class="edge">
<title>PrismaService&#45;&gt;UsersModule</title>
<path fill="none" stroke="black" d="M543,-84.91C543,-84.91 543,-103.79 543,-103.79"/>
<polygon fill="black" stroke="black" points="539.5,-103.79 543,-113.79 546.5,-103.79 539.5,-103.79"/>
</g>
<!-- ProductsService -->
<g id="node5" class="node">
<title>ProductsService</title>
<ellipse fill="#fdb462" stroke="black" cx="384" cy="-66.8" rx="73.59" ry="18"/>
<text text-anchor="middle" x="384" y="-62.6" font-family="Times,serif" font-size="14.00">ProductsService</text>
</g>
<!-- ProductsService&#45;&gt;UsersModule -->
<g id="edge5" class="edge">
<title>ProductsService&#45;&gt;UsersModule</title>
<path fill="none" stroke="black" d="M384,-84.83C384,-101.2 384,-122.8 384,-122.8 384,-122.8 487.01,-122.8 487.01,-122.8"/>
<polygon fill="black" stroke="black" points="487.01,-126.3 497.01,-122.8 487.01,-119.3 487.01,-126.3"/>
</g>
<!-- StripeService -->
<g id="node6" class="node">
<title>StripeService</title>
<ellipse fill="#fdb462" stroke="black" cx="229" cy="-66.8" rx="63.12" ry="18"/>
<text text-anchor="middle" x="229" y="-62.6" font-family="Times,serif" font-size="14.00">StripeService</text>
</g>
<!-- StripeService&#45;&gt;UsersModule -->
<g id="edge6" class="edge">
<title>StripeService&#45;&gt;UsersModule</title>
<path fill="none" stroke="black" d="M229,-84.91C229,-104.14 229,-131.8 229,-131.8 229,-131.8 487.01,-131.8 487.01,-131.8"/>
<polygon fill="black" stroke="black" points="487.01,-135.3 497.01,-131.8 487.01,-128.3 487.01,-135.3"/>
</g>
<!-- UsersService -->
<g id="node7" class="node">
<title>UsersService</title>
<ellipse fill="#fdb462" stroke="black" cx="86" cy="-66.8" rx="61.97" ry="18"/>
<text text-anchor="middle" x="86" y="-62.6" font-family="Times,serif" font-size="14.00">UsersService</text>
</g>
<!-- UsersService&#45;&gt;UsersModule -->
<g id="edge7" class="edge">
<title>UsersService&#45;&gt;UsersModule</title>
<path fill="none" stroke="black" d="M86,-85.09C86,-107.01 86,-140.8 86,-140.8 86,-140.8 487.09,-140.8 487.09,-140.8"/>
<polygon fill="black" stroke="black" points="487.09,-144.3 497.09,-140.8 487.09,-137.3 487.09,-144.3"/>
</g>
</g>
</svg>
