<?xml version="1.0" encoding="UTF-8" standalone="no"?>
<!DOCTYPE svg PUBLIC "-//W3C//DTD SVG 1.1//EN"
 "http://www.w3.org/Graphics/SVG/1.1/DTD/svg11.dtd">
<!-- Generated by graphviz version 5.0.0 (20220707.1540)
 -->
<!-- Title: dependencies Pages: 1 -->
<svg width="1819pt" height="247pt"
 viewBox="0.00 0.00 1819.00 246.80" xmlns="http://www.w3.org/2000/svg" xmlns:xlink="http://www.w3.org/1999/xlink">
<g id="graph0" class="graph" transform="scale(1 1) rotate(0) translate(4 242.8)">
<title>dependencies</title>
<polygon fill="white" stroke="transparent" points="-4,4 -4,-242.8 1815,-242.8 1815,4 -4,4"/>
<text text-anchor="middle" x="905.5" y="-8.2" font-family="sans-serif" font-size="14.00">dependencies</text>
<g id="clust1" class="cluster">
<title>cluster_AuthModule</title>
<polygon fill="none" stroke="black" stroke-dasharray="1,5" points="8,-32.8 8,-230.8 1803,-230.8 1803,-32.8 8,-32.8"/>
</g>
<g id="clust3" class="cluster">
<title>cluster_AuthModule_imports</title>
<polygon fill="none" stroke="black" points="1687,-40.8 1687,-92.8 1795,-92.8 1795,-40.8 1687,-40.8"/>
</g>
<g id="clust4" class="cluster">
<title>cluster_AuthModule_exports</title>
<polygon fill="none" stroke="black" points="625,-170.8 625,-222.8 1214,-222.8 1214,-170.8 625,-170.8"/>
</g>
<g id="clust6" class="cluster">
<title>cluster_AuthModule_providers</title>
<polygon fill="none" stroke="black" points="16,-40.8 16,-92.8 1679,-92.8 1679,-40.8 16,-40.8"/>
</g>
<!-- UsersModule -->
<g id="node1" class="node">
<title>UsersModule</title>
<polygon fill="#8dd3c7" stroke="black" points="1786.94,-84.8 1783.94,-88.8 1762.94,-88.8 1759.94,-84.8 1695.06,-84.8 1695.06,-48.8 1786.94,-48.8 1786.94,-84.8"/>
<text text-anchor="middle" x="1741" y="-62.6" font-family="Times,serif" font-size="14.00">UsersModule</text>
</g>
<!-- AuthModule -->
<g id="node2" class="node">
<title>AuthModule</title>
<polygon fill="#8dd3c7" stroke="black" points="949.55,-149.8 946.55,-153.8 925.55,-153.8 922.55,-149.8 862.45,-149.8 862.45,-113.8 949.55,-113.8 949.55,-149.8"/>
<text text-anchor="middle" x="906" y="-127.6" font-family="Times,serif" font-size="14.00">AuthModule</text>
</g>
<!-- UsersModule&#45;&gt;AuthModule -->
<g id="edge1" class="edge">
<title>UsersModule&#45;&gt;AuthModule</title>
<path fill="none" stroke="black" d="M1741,-84.83C1741,-105.57 1741,-136.8 1741,-136.8 1741,-136.8 959.72,-136.8 959.72,-136.8"/>
<polygon fill="black" stroke="black" points="959.72,-133.3 949.72,-136.8 959.72,-140.3 959.72,-133.3"/>
</g>
<!-- AuthService  -->
<g id="node3" class="node">
<title>AuthService </title>
<polygon fill="#fb8072" stroke="black" points="1205.98,-214.8 1116.02,-214.8 1116.02,-178.8 1205.98,-178.8 1205.98,-214.8"/>
<text text-anchor="middle" x="1161" y="-192.6" font-family="Times,serif" font-size="14.00">AuthService </text>
</g>
<!-- AuthModule&#45;&gt;AuthService  -->
<g id="edge2" class="edge">
<title>AuthModule&#45;&gt;AuthService </title>
<path fill="none" stroke="black" stroke-dasharray="5,2" d="M949.84,-140.8C1022.74,-140.8 1161,-140.8 1161,-140.8 1161,-140.8 1161,-168.77 1161,-168.77"/>
<polygon fill="black" stroke="black" points="1157.5,-168.77 1161,-178.77 1164.5,-168.77 1157.5,-168.77"/>
</g>
<!-- FacebookStrategy  -->
<g id="node4" class="node">
<title>FacebookStrategy </title>
<polygon fill="#fb8072" stroke="black" points="1098.08,-214.8 977.92,-214.8 977.92,-178.8 1098.08,-178.8 1098.08,-214.8"/>
<text text-anchor="middle" x="1038" y="-192.6" font-family="Times,serif" font-size="14.00">FacebookStrategy </text>
</g>
<!-- AuthModule&#45;&gt;FacebookStrategy  -->
<g id="edge3" class="edge">
<title>AuthModule&#45;&gt;FacebookStrategy </title>
<path fill="none" stroke="black" stroke-dasharray="5,2" d="M949.69,-145.8C979.71,-145.8 1014.18,-145.8 1014.18,-145.8 1014.18,-145.8 1014.18,-168.68 1014.18,-168.68"/>
<polygon fill="black" stroke="black" points="1010.68,-168.68 1014.18,-178.68 1017.68,-168.68 1010.68,-168.68"/>
</g>
<!-- GoogleStrategy  -->
<g id="node5" class="node">
<title>GoogleStrategy </title>
<polygon fill="#fb8072" stroke="black" points="959.87,-214.8 852.13,-214.8 852.13,-178.8 959.87,-178.8 959.87,-214.8"/>
<text text-anchor="middle" x="906" y="-192.6" font-family="Times,serif" font-size="14.00">GoogleStrategy </text>
</g>
<!-- AuthModule&#45;&gt;GoogleStrategy  -->
<g id="edge4" class="edge">
<title>AuthModule&#45;&gt;GoogleStrategy </title>
<path fill="none" stroke="black" stroke-dasharray="5,2" d="M906,-149.91C906,-149.91 906,-168.79 906,-168.79"/>
<polygon fill="black" stroke="black" points="902.5,-168.79 906,-178.79 909.5,-168.79 902.5,-168.79"/>
</g>
<!-- JwtStrategy  -->
<g id="node6" class="node">
<title>JwtStrategy </title>
<polygon fill="#fb8072" stroke="black" points="834.6,-214.8 749.4,-214.8 749.4,-178.8 834.6,-178.8 834.6,-214.8"/>
<text text-anchor="middle" x="792" y="-192.6" font-family="Times,serif" font-size="14.00">JwtStrategy </text>
</g>
<!-- AuthModule&#45;&gt;JwtStrategy  -->
<g id="edge5" class="edge">
<title>AuthModule&#45;&gt;JwtStrategy </title>
<path fill="none" stroke="black" stroke-dasharray="5,2" d="M862.25,-145.8C835.19,-145.8 805.58,-145.8 805.58,-145.8 805.58,-145.8 805.58,-168.68 805.58,-168.68"/>
<polygon fill="black" stroke="black" points="802.08,-168.68 805.58,-178.68 809.08,-168.68 802.08,-168.68"/>
</g>
<!-- LocalStrategy  -->
<g id="node7" class="node">
<title>LocalStrategy </title>
<polygon fill="#fb8072" stroke="black" points="731.02,-214.8 632.98,-214.8 632.98,-178.8 731.02,-178.8 731.02,-214.8"/>
<text text-anchor="middle" x="682" y="-192.6" font-family="Times,serif" font-size="14.00">LocalStrategy </text>
</g>
<!-- AuthModule&#45;&gt;LocalStrategy  -->
<g id="edge6" class="edge">
<title>AuthModule&#45;&gt;LocalStrategy </title>
<path fill="none" stroke="black" stroke-dasharray="5,2" d="M862.28,-140.8C797.09,-140.8 682,-140.8 682,-140.8 682,-140.8 682,-168.77 682,-168.77"/>
<polygon fill="black" stroke="black" points="678.5,-168.77 682,-178.77 685.5,-168.77 678.5,-168.77"/>
</g>
<!-- AuthService -->
<g id="node8" class="node">
<title>AuthService</title>
<ellipse fill="#fdb462" stroke="black" cx="1612" cy="-66.8" rx="59.11" ry="18"/>
<text text-anchor="middle" x="1612" y="-62.6" font-family="Times,serif" font-size="14.00">AuthService</text>
</g>
<!-- AuthService&#45;&gt;AuthModule -->
<g id="edge7" class="edge">
<title>AuthService&#45;&gt;AuthModule</title>
<path fill="none" stroke="black" d="M1612,-84.91C1612,-104.14 1612,-131.8 1612,-131.8 1612,-131.8 959.63,-131.8 959.63,-131.8"/>
<polygon fill="black" stroke="black" points="959.63,-128.3 949.63,-131.8 959.63,-135.3 959.63,-128.3"/>
</g>
<!-- CartsService -->
<g id="node9" class="node">
<title>CartsService</title>
<ellipse fill="#fdb462" stroke="black" cx="1474" cy="-66.8" rx="60.26" ry="18"/>
<text text-anchor="middle" x="1474" y="-62.6" font-family="Times,serif" font-size="14.00">CartsService</text>
</g>
<!-- CartsService&#45;&gt;AuthModule -->
<g id="edge8" class="edge">
<title>CartsService&#45;&gt;AuthModule</title>
<path fill="none" stroke="black" d="M1474,-85.1C1474,-103.07 1474,-127.8 1474,-127.8 1474,-127.8 959.63,-127.8 959.63,-127.8"/>
<polygon fill="black" stroke="black" points="959.63,-124.3 949.63,-127.8 959.63,-131.3 959.63,-124.3"/>
</g>
<!-- DeliveryService -->
<g id="node10" class="node">
<title>DeliveryService</title>
<ellipse fill="#fdb462" stroke="black" cx="1322" cy="-66.8" rx="73.56" ry="18"/>
<text text-anchor="middle" x="1322" y="-62.6" font-family="Times,serif" font-size="14.00">DeliveryService</text>
</g>
<!-- DeliveryService&#45;&gt;AuthModule -->
<g id="edge9" class="edge">
<title>DeliveryService&#45;&gt;AuthModule</title>
<path fill="none" stroke="black" d="M1322,-84.83C1322,-101.2 1322,-122.8 1322,-122.8 1322,-122.8 959.73,-122.8 959.73,-122.8"/>
<polygon fill="black" stroke="black" points="959.73,-119.3 949.73,-122.8 959.73,-126.3 959.73,-119.3"/>
</g>
<!-- FacebookStrategy -->
<g id="node11" class="node">
<title>FacebookStrategy</title>
<ellipse fill="#fdb462" stroke="black" cx="1149" cy="-66.8" rx="80.52" ry="18"/>
<text text-anchor="middle" x="1149" y="-62.6" font-family="Times,serif" font-size="14.00">FacebookStrategy</text>
</g>
<!-- FacebookStrategy&#45;&gt;AuthModule -->
<g id="edge10" class="edge">
<title>FacebookStrategy&#45;&gt;AuthModule</title>
<path fill="none" stroke="black" d="M1083.26,-77.32C1083.26,-92.52 1083.26,-118.8 1083.26,-118.8 1083.26,-118.8 959.82,-118.8 959.82,-118.8"/>
<polygon fill="black" stroke="black" points="959.82,-115.3 949.82,-118.8 959.82,-122.3 959.82,-115.3"/>
</g>
<!-- GoogleStrategy -->
<g id="node12" class="node">
<title>GoogleStrategy</title>
<ellipse fill="#fdb462" stroke="black" cx="979" cy="-66.8" rx="71.79" ry="18"/>
<text text-anchor="middle" x="979" y="-62.6" font-family="Times,serif" font-size="14.00">GoogleStrategy</text>
</g>
<!-- GoogleStrategy&#45;&gt;AuthModule -->
<g id="edge11" class="edge">
<title>GoogleStrategy&#45;&gt;AuthModule</title>
<path fill="none" stroke="black" d="M928.56,-79.64C928.56,-79.64 928.56,-103.32 928.56,-103.32"/>
<polygon fill="black" stroke="black" points="925.06,-103.32 928.56,-113.32 932.06,-103.32 925.06,-103.32"/>
</g>
<!-- JwtStrategy -->
<g id="node13" class="node">
<title>JwtStrategy</title>
<ellipse fill="#fdb462" stroke="black" cx="833" cy="-66.8" rx="56.77" ry="18"/>
<text text-anchor="middle" x="833" y="-62.6" font-family="Times,serif" font-size="14.00">JwtStrategy</text>
</g>
<!-- JwtStrategy&#45;&gt;AuthModule -->
<g id="edge12" class="edge">
<title>JwtStrategy&#45;&gt;AuthModule</title>
<path fill="none" stroke="black" d="M875.93,-78.72C875.93,-78.72 875.93,-103.57 875.93,-103.57"/>
<polygon fill="black" stroke="black" points="872.43,-103.57 875.93,-113.57 879.43,-103.57 872.43,-103.57"/>
</g>
<!-- LocalStrategy -->
<g id="node14" class="node">
<title>LocalStrategy</title>
<ellipse fill="#fdb462" stroke="black" cx="693" cy="-66.8" rx="65.4" ry="18"/>
<text text-anchor="middle" x="693" y="-62.6" font-family="Times,serif" font-size="14.00">LocalStrategy</text>
</g>
<!-- LocalStrategy&#45;&gt;AuthModule -->
<g id="edge13" class="edge">
<title>LocalStrategy&#45;&gt;AuthModule</title>
<path fill="none" stroke="black" d="M753.7,-73.6C753.7,-87.69 753.7,-118.8 753.7,-118.8 753.7,-118.8 852.36,-118.8 852.36,-118.8"/>
<polygon fill="black" stroke="black" points="852.36,-122.3 862.36,-118.8 852.36,-115.3 852.36,-122.3"/>
</g>
<!-- PrismaService -->
<g id="node15" class="node">
<title>PrismaService</title>
<ellipse fill="#fdb462" stroke="black" cx="543" cy="-66.8" rx="66.64" ry="18"/>
<text text-anchor="middle" x="543" y="-62.6" font-family="Times,serif" font-size="14.00">PrismaService</text>
</g>
<!-- PrismaService&#45;&gt;AuthModule -->
<g id="edge14" class="edge">
<title>PrismaService&#45;&gt;AuthModule</title>
<path fill="none" stroke="black" d="M543,-84.83C543,-101.2 543,-122.8 543,-122.8 543,-122.8 852.21,-122.8 852.21,-122.8"/>
<polygon fill="black" stroke="black" points="852.21,-126.3 862.21,-122.8 852.21,-119.3 852.21,-126.3"/>
</g>
<!-- ProductsService -->
<g id="node16" class="node">
<title>ProductsService</title>
<ellipse fill="#fdb462" stroke="black" cx="384" cy="-66.8" rx="73.59" ry="18"/>
<text text-anchor="middle" x="384" y="-62.6" font-family="Times,serif" font-size="14.00">ProductsService</text>
</g>
<!-- ProductsService&#45;&gt;AuthModule -->
<g id="edge15" class="edge">
<title>ProductsService&#45;&gt;AuthModule</title>
<path fill="none" stroke="black" d="M384,-85.1C384,-103.07 384,-127.8 384,-127.8 384,-127.8 852.39,-127.8 852.39,-127.8"/>
<polygon fill="black" stroke="black" points="852.39,-131.3 862.39,-127.8 852.39,-124.3 852.39,-131.3"/>
</g>
<!-- StripeService -->
<g id="node17" class="node">
<title>StripeService</title>
<ellipse fill="#fdb462" stroke="black" cx="229" cy="-66.8" rx="63.12" ry="18"/>
<text text-anchor="middle" x="229" y="-62.6" font-family="Times,serif" font-size="14.00">StripeService</text>
</g>
<!-- StripeService&#45;&gt;AuthModule -->
<g id="edge16" class="edge">
<title>StripeService&#45;&gt;AuthModule</title>
<path fill="none" stroke="black" d="M229,-84.91C229,-104.14 229,-131.8 229,-131.8 229,-131.8 852.36,-131.8 852.36,-131.8"/>
<polygon fill="black" stroke="black" points="852.36,-135.3 862.36,-131.8 852.36,-128.3 852.36,-135.3"/>
</g>
<!-- UsersService -->
<g id="node18" class="node">
<title>UsersService</title>
<ellipse fill="#fdb462" stroke="black" cx="86" cy="-66.8" rx="61.97" ry="18"/>
<text text-anchor="middle" x="86" y="-62.6" font-family="Times,serif" font-size="14.00">UsersService</text>
</g>
<!-- UsersService&#45;&gt;AuthModule -->
<g id="edge17" class="edge">
<title>UsersService&#45;&gt;AuthModule</title>
<path fill="none" stroke="black" d="M86,-84.83C86,-105.57 86,-136.8 86,-136.8 86,-136.8 852.2,-136.8 852.2,-136.8"/>
<polygon fill="black" stroke="black" points="852.2,-140.3 862.2,-136.8 852.2,-133.3 852.2,-140.3"/>
</g>
</g>
</svg>
