<?xml version="1.0" encoding="UTF-8" standalone="no"?>
<!DOCTYPE svg PUBLIC "-//W3C//DTD SVG 1.1//EN"
 "http://www.w3.org/Graphics/SVG/1.1/DTD/svg11.dtd">
<!-- Generated by graphviz version 5.0.0 (20220707.1540)
 -->
<!-- Title: dependencies Pages: 1 -->
<svg width="946pt" height="174pt"
 viewBox="0.00 0.00 946.00 173.80" xmlns="http://www.w3.org/2000/svg" xmlns:xlink="http://www.w3.org/1999/xlink">
<g id="graph0" class="graph" transform="scale(1 1) rotate(0) translate(4 169.8)">
<title>dependencies</title>
<polygon fill="white" stroke="transparent" points="-4,4 -4,-169.8 942,-169.8 942,4 -4,4"/>
<text text-anchor="middle" x="469" y="-8.2" font-family="sans-serif" font-size="14.00">dependencies</text>
<g id="clust1" class="cluster">
<title>cluster_DeliveryModule</title>
<polygon fill="none" stroke="black" stroke-dasharray="1,5" points="8,-32.8 8,-157.8 930,-157.8 930,-32.8 8,-32.8"/>
</g>
<g id="clust6" class="cluster">
<title>cluster_DeliveryModule_providers</title>
<polygon fill="none" stroke="black" points="16,-40.8 16,-92.8 922,-92.8 922,-40.8 16,-40.8"/>
</g>
<!-- CartsService -->
<g id="node1" class="node">
<title>CartsService</title>
<ellipse fill="#fdb462" stroke="black" cx="854" cy="-66.8" rx="60.26" ry="18"/>
<text text-anchor="middle" x="854" y="-62.6" font-family="Times,serif" font-size="14.00">CartsService</text>
</g>
<!-- DeliveryModule -->
<g id="node7" class="node">
<title>DeliveryModule</title>
<polygon fill="#8dd3c7" stroke="black" points="438.03,-149.8 435.03,-153.8 414.03,-153.8 411.03,-149.8 329.97,-149.8 329.97,-113.8 438.03,-113.8 438.03,-149.8"/>
<text text-anchor="middle" x="384" y="-127.6" font-family="Times,serif" font-size="14.00">DeliveryModule</text>
</g>
<!-- CartsService&#45;&gt;DeliveryModule -->
<g id="edge1" class="edge">
<title>CartsService&#45;&gt;DeliveryModule</title>
<path fill="none" stroke="black" d="M854,-85.09C854,-107.01 854,-140.8 854,-140.8 854,-140.8 448.37,-140.8 448.37,-140.8"/>
<polygon fill="black" stroke="black" points="448.37,-137.3 438.37,-140.8 448.37,-144.3 448.37,-137.3"/>
</g>
<!-- DeliveryService -->
<g id="node2" class="node">
<title>DeliveryService</title>
<ellipse fill="#fdb462" stroke="black" cx="702" cy="-66.8" rx="73.56" ry="18"/>
<text text-anchor="middle" x="702" y="-62.6" font-family="Times,serif" font-size="14.00">DeliveryService</text>
</g>
<!-- DeliveryService&#45;&gt;DeliveryModule -->
<g id="edge2" class="edge">
<title>DeliveryService&#45;&gt;DeliveryModule</title>
<path fill="none" stroke="black" d="M702,-84.91C702,-104.14 702,-131.8 702,-131.8 702,-131.8 448.3,-131.8 448.3,-131.8"/>
<polygon fill="black" stroke="black" points="448.3,-128.3 438.3,-131.8 448.3,-135.3 448.3,-128.3"/>
</g>
<!-- PrismaService -->
<g id="node3" class="node">
<title>PrismaService</title>
<ellipse fill="#fdb462" stroke="black" cx="543" cy="-66.8" rx="66.64" ry="18"/>
<text text-anchor="middle" x="543" y="-62.6" font-family="Times,serif" font-size="14.00">PrismaService</text>
</g>
<!-- PrismaService&#45;&gt;DeliveryModule -->
<g id="edge3" class="edge">
<title>PrismaService&#45;&gt;DeliveryModule</title>
<path fill="none" stroke="black" d="M543,-84.83C543,-101.2 543,-122.8 543,-122.8 543,-122.8 448.27,-122.8 448.27,-122.8"/>
<polygon fill="black" stroke="black" points="448.27,-119.3 438.27,-122.8 448.27,-126.3 448.27,-119.3"/>
</g>
<!-- ProductsService -->
<g id="node4" class="node">
<title>ProductsService</title>
<ellipse fill="#fdb462" stroke="black" cx="384" cy="-66.8" rx="73.59" ry="18"/>
<text text-anchor="middle" x="384" y="-62.6" font-family="Times,serif" font-size="14.00">ProductsService</text>
</g>
<!-- ProductsService&#45;&gt;DeliveryModule -->
<g id="edge4" class="edge">
<title>ProductsService&#45;&gt;DeliveryModule</title>
<path fill="none" stroke="black" d="M365.91,-84.56C365.91,-84.56 365.91,-103.61 365.91,-103.61"/>
<polygon fill="black" stroke="black" points="362.41,-103.61 365.91,-113.61 369.41,-103.61 362.41,-103.61"/>
</g>
<!-- ProductsService&#45;&gt;DeliveryModule -->
<g id="edge5" class="edge">
<title>ProductsService&#45;&gt;DeliveryModule</title>
<path fill="none" stroke="black" d="M402.09,-84.56C402.09,-84.56 402.09,-103.61 402.09,-103.61"/>
<polygon fill="black" stroke="black" points="398.59,-103.61 402.09,-113.61 405.59,-103.61 398.59,-103.61"/>
</g>
<!-- StripeService -->
<g id="node5" class="node">
<title>StripeService</title>
<ellipse fill="#fdb462" stroke="black" cx="229" cy="-66.8" rx="63.12" ry="18"/>
<text text-anchor="middle" x="229" y="-62.6" font-family="Times,serif" font-size="14.00">StripeService</text>
</g>
<!-- StripeService&#45;&gt;DeliveryModule -->
<g id="edge6" class="edge">
<title>StripeService&#45;&gt;DeliveryModule</title>
<path fill="none" stroke="black" d="M229,-84.82C229,-102.17 229,-125.8 229,-125.8 229,-125.8 319.79,-125.8 319.79,-125.8"/>
<polygon fill="black" stroke="black" points="319.79,-129.3 329.79,-125.8 319.79,-122.3 319.79,-129.3"/>
</g>
<!-- UsersService -->
<g id="node6" class="node">
<title>UsersService</title>
<ellipse fill="#fdb462" stroke="black" cx="86" cy="-66.8" rx="61.97" ry="18"/>
<text text-anchor="middle" x="86" y="-62.6" font-family="Times,serif" font-size="14.00">UsersService</text>
</g>
<!-- UsersService&#45;&gt;DeliveryModule -->
<g id="edge7" class="edge">
<title>UsersService&#45;&gt;DeliveryModule</title>
<path fill="none" stroke="black" d="M86,-85.08C86,-106.12 86,-137.8 86,-137.8 86,-137.8 319.69,-137.8 319.69,-137.8"/>
<polygon fill="black" stroke="black" points="319.69,-141.3 329.69,-137.8 319.69,-134.3 319.69,-141.3"/>
</g>
</g>
</svg>
