<?xml version="1.0" encoding="UTF-8" standalone="no"?>
<!DOCTYPE svg PUBLIC "-//W3C//DTD SVG 1.1//EN"
 "http://www.w3.org/Graphics/SVG/1.1/DTD/svg11.dtd">
<!-- Generated by graphviz version 5.0.0 (20220707.1540)
 -->
<!-- Title: dependencies Pages: 1 -->
<svg width="1118pt" height="174pt"
 viewBox="0.00 0.00 1118.00 173.80" xmlns="http://www.w3.org/2000/svg" xmlns:xlink="http://www.w3.org/1999/xlink">
<g id="graph0" class="graph" transform="scale(1 1) rotate(0) translate(4 169.8)">
<title>dependencies</title>
<polygon fill="white" stroke="transparent" points="-4,4 -4,-169.8 1114,-169.8 1114,4 -4,4"/>
<text text-anchor="middle" x="555" y="-8.2" font-family="sans-serif" font-size="14.00">dependencies</text>
<g id="clust1" class="cluster">
<title>cluster_PaymentsModule</title>
<polygon fill="none" stroke="black" stroke-dasharray="1,5" points="8,-32.8 8,-157.8 1102,-157.8 1102,-32.8 8,-32.8"/>
</g>
<g id="clust6" class="cluster">
<title>cluster_PaymentsModule_providers</title>
<polygon fill="none" stroke="black" points="16,-40.8 16,-92.8 1094,-92.8 1094,-40.8 16,-40.8"/>
</g>
<!-- CartsService -->
<g id="node1" class="node">
<title>CartsService</title>
<ellipse fill="#fdb462" stroke="black" cx="1026" cy="-66.8" rx="60.26" ry="18"/>
<text text-anchor="middle" x="1026" y="-62.6" font-family="Times,serif" font-size="14.00">CartsService</text>
</g>
<!-- PaymentsModule -->
<g id="node8" class="node">
<title>PaymentsModule</title>
<polygon fill="#8dd3c7" stroke="black" points="599.99,-149.8 596.99,-153.8 575.99,-153.8 572.99,-149.8 486.01,-149.8 486.01,-113.8 599.99,-113.8 599.99,-149.8"/>
<text text-anchor="middle" x="543" y="-127.6" font-family="Times,serif" font-size="14.00">PaymentsModule</text>
</g>
<!-- CartsService&#45;&gt;PaymentsModule -->
<g id="edge1" class="edge">
<title>CartsService&#45;&gt;PaymentsModule</title>
<path fill="none" stroke="black" d="M1026,-85.09C1026,-107.01 1026,-140.8 1026,-140.8 1026,-140.8 610.3,-140.8 610.3,-140.8"/>
<polygon fill="black" stroke="black" points="610.3,-137.3 600.3,-140.8 610.3,-144.3 610.3,-137.3"/>
</g>
<!-- DeliveryService -->
<g id="node2" class="node">
<title>DeliveryService</title>
<ellipse fill="#fdb462" stroke="black" cx="874" cy="-66.8" rx="73.56" ry="18"/>
<text text-anchor="middle" x="874" y="-62.6" font-family="Times,serif" font-size="14.00">DeliveryService</text>
</g>
<!-- DeliveryService&#45;&gt;PaymentsModule -->
<g id="edge2" class="edge">
<title>DeliveryService&#45;&gt;PaymentsModule</title>
<path fill="none" stroke="black" d="M874,-84.91C874,-104.14 874,-131.8 874,-131.8 874,-131.8 610.28,-131.8 610.28,-131.8"/>
<polygon fill="black" stroke="black" points="610.28,-128.3 600.28,-131.8 610.28,-135.3 610.28,-128.3"/>
</g>
<!-- PaymentsService -->
<g id="node3" class="node">
<title>PaymentsService</title>
<ellipse fill="#fdb462" stroke="black" cx="705" cy="-66.8" rx="77.59" ry="18"/>
<text text-anchor="middle" x="705" y="-62.6" font-family="Times,serif" font-size="14.00">PaymentsService</text>
</g>
<!-- PaymentsService&#45;&gt;PaymentsModule -->
<g id="edge3" class="edge">
<title>PaymentsService&#45;&gt;PaymentsModule</title>
<path fill="none" stroke="black" d="M705,-84.83C705,-101.2 705,-122.8 705,-122.8 705,-122.8 610.12,-122.8 610.12,-122.8"/>
<polygon fill="black" stroke="black" points="610.12,-119.3 600.12,-122.8 610.12,-126.3 610.12,-119.3"/>
</g>
<!-- PrismaService -->
<g id="node4" class="node">
<title>PrismaService</title>
<ellipse fill="#fdb462" stroke="black" cx="543" cy="-66.8" rx="66.64" ry="18"/>
<text text-anchor="middle" x="543" y="-62.6" font-family="Times,serif" font-size="14.00">PrismaService</text>
</g>
<!-- PrismaService&#45;&gt;PaymentsModule -->
<g id="edge4" class="edge">
<title>PrismaService&#45;&gt;PaymentsModule</title>
<path fill="none" stroke="black" d="M543,-84.91C543,-84.91 543,-103.79 543,-103.79"/>
<polygon fill="black" stroke="black" points="539.5,-103.79 543,-113.79 546.5,-103.79 539.5,-103.79"/>
</g>
<!-- ProductsService -->
<g id="node5" class="node">
<title>ProductsService</title>
<ellipse fill="#fdb462" stroke="black" cx="384" cy="-66.8" rx="73.59" ry="18"/>
<text text-anchor="middle" x="384" y="-62.6" font-family="Times,serif" font-size="14.00">ProductsService</text>
</g>
<!-- ProductsService&#45;&gt;PaymentsModule -->
<g id="edge5" class="edge">
<title>ProductsService&#45;&gt;PaymentsModule</title>
<path fill="none" stroke="black" d="M384,-84.83C384,-101.2 384,-122.8 384,-122.8 384,-122.8 475.6,-122.8 475.6,-122.8"/>
<polygon fill="black" stroke="black" points="475.6,-126.3 485.6,-122.8 475.6,-119.3 475.6,-126.3"/>
</g>
<!-- StripeService -->
<g id="node6" class="node">
<title>StripeService</title>
<ellipse fill="#fdb462" stroke="black" cx="229" cy="-66.8" rx="63.12" ry="18"/>
<text text-anchor="middle" x="229" y="-62.6" font-family="Times,serif" font-size="14.00">StripeService</text>
</g>
<!-- StripeService&#45;&gt;PaymentsModule -->
<g id="edge6" class="edge">
<title>StripeService&#45;&gt;PaymentsModule</title>
<path fill="none" stroke="black" d="M229,-84.91C229,-104.14 229,-131.8 229,-131.8 229,-131.8 475.77,-131.8 475.77,-131.8"/>
<polygon fill="black" stroke="black" points="475.77,-135.3 485.77,-131.8 475.77,-128.3 475.77,-135.3"/>
</g>
<!-- UsersService -->
<g id="node7" class="node">
<title>UsersService</title>
<ellipse fill="#fdb462" stroke="black" cx="86" cy="-66.8" rx="61.97" ry="18"/>
<text text-anchor="middle" x="86" y="-62.6" font-family="Times,serif" font-size="14.00">UsersService</text>
</g>
<!-- UsersService&#45;&gt;PaymentsModule -->
<g id="edge7" class="edge">
<title>UsersService&#45;&gt;PaymentsModule</title>
<path fill="none" stroke="black" d="M86,-85.09C86,-107.01 86,-140.8 86,-140.8 86,-140.8 475.58,-140.8 475.58,-140.8"/>
<polygon fill="black" stroke="black" points="475.58,-144.3 485.58,-140.8 475.58,-137.3 475.58,-144.3"/>
</g>
</g>
</svg>
