<?xml version="1.0" encoding="UTF-8" standalone="no"?>
<!DOCTYPE svg PUBLIC "-//W3C//DTD SVG 1.1//EN"
 "http://www.w3.org/Graphics/SVG/1.1/DTD/svg11.dtd">
<!-- Generated by graphviz version 5.0.0 (20220707.1540)
 -->
<!-- Title: dependencies Pages: 1 -->
<svg width="494pt" height="174pt"
 viewBox="0.00 0.00 494.00 173.80" xmlns="http://www.w3.org/2000/svg" xmlns:xlink="http://www.w3.org/1999/xlink">
<g id="graph0" class="graph" transform="scale(1 1) rotate(0) translate(4 169.8)">
<title>dependencies</title>
<polygon fill="white" stroke="transparent" points="-4,4 -4,-169.8 490,-169.8 490,4 -4,4"/>
<text text-anchor="middle" x="243" y="-8.2" font-family="sans-serif" font-size="14.00">dependencies</text>
<g id="clust1" class="cluster">
<title>cluster_CartsModule</title>
<polygon fill="none" stroke="black" stroke-dasharray="1,5" points="8,-32.8 8,-157.8 478,-157.8 478,-32.8 8,-32.8"/>
</g>
<g id="clust6" class="cluster">
<title>cluster_CartsModule_providers</title>
<polygon fill="none" stroke="black" points="16,-40.8 16,-92.8 470,-92.8 470,-40.8 16,-40.8"/>
</g>
<!-- CartsService -->
<g id="node1" class="node">
<title>CartsService</title>
<ellipse fill="#fdb462" stroke="black" cx="402" cy="-66.8" rx="60.26" ry="18"/>
<text text-anchor="middle" x="402" y="-62.6" font-family="Times,serif" font-size="14.00">CartsService</text>
</g>
<!-- CartsModule -->
<g id="node4" class="node">
<title>CartsModule</title>
<polygon fill="#8dd3c7" stroke="black" points="301.6,-149.8 298.6,-153.8 277.6,-153.8 274.6,-149.8 212.4,-149.8 212.4,-113.8 301.6,-113.8 301.6,-149.8"/>
<text text-anchor="middle" x="257" y="-127.6" font-family="Times,serif" font-size="14.00">CartsModule</text>
</g>
<!-- CartsService&#45;&gt;CartsModule -->
<g id="edge1" class="edge">
<title>CartsService&#45;&gt;CartsModule</title>
<path fill="none" stroke="black" d="M402,-84.91C402,-104.14 402,-131.8 402,-131.8 402,-131.8 311.69,-131.8 311.69,-131.8"/>
<polygon fill="black" stroke="black" points="311.69,-128.3 301.69,-131.8 311.69,-135.3 311.69,-128.3"/>
</g>
<!-- PrismaService -->
<g id="node2" class="node">
<title>PrismaService</title>
<ellipse fill="#fdb462" stroke="black" cx="257" cy="-66.8" rx="66.64" ry="18"/>
<text text-anchor="middle" x="257" y="-62.6" font-family="Times,serif" font-size="14.00">PrismaService</text>
</g>
<!-- PrismaService&#45;&gt;CartsModule -->
<g id="edge2" class="edge">
<title>PrismaService&#45;&gt;CartsModule</title>
<path fill="none" stroke="black" d="M257,-84.91C257,-84.91 257,-103.79 257,-103.79"/>
<polygon fill="black" stroke="black" points="253.5,-103.79 257,-113.79 260.5,-103.79 253.5,-103.79"/>
</g>
<!-- ProductsService -->
<g id="node3" class="node">
<title>ProductsService</title>
<ellipse fill="#fdb462" stroke="black" cx="98" cy="-66.8" rx="73.59" ry="18"/>
<text text-anchor="middle" x="98" y="-62.6" font-family="Times,serif" font-size="14.00">ProductsService</text>
</g>
<!-- ProductsService&#45;&gt;CartsModule -->
<g id="edge3" class="edge">
<title>ProductsService&#45;&gt;CartsModule</title>
<path fill="none" stroke="black" d="M98,-84.91C98,-104.14 98,-131.8 98,-131.8 98,-131.8 202.29,-131.8 202.29,-131.8"/>
<polygon fill="black" stroke="black" points="202.29,-135.3 212.29,-131.8 202.29,-128.3 202.29,-135.3"/>
</g>
</g>
</svg>
