<?xml version="1.0" encoding="UTF-8" standalone="no"?>
<!DOCTYPE svg PUBLIC "-//W3C//DTD SVG 1.1//EN"
 "http://www.w3.org/Graphics/SVG/1.1/DTD/svg11.dtd">
<!-- Generated by graphviz version 5.0.0 (20220707.1540)
 -->
<!-- Title: dependencies Pages: 1 -->
<svg width="2497pt" height="174pt"
 viewBox="0.00 0.00 2497.00 173.80" xmlns="http://www.w3.org/2000/svg" xmlns:xlink="http://www.w3.org/1999/xlink">
<g id="graph0" class="graph" transform="scale(1 1) rotate(0) translate(4 169.8)">
<title>dependencies</title>
<polygon fill="white" stroke="transparent" points="-4,4 -4,-169.8 2493,-169.8 2493,4 -4,4"/>
<text text-anchor="middle" x="1244.5" y="-8.2" font-family="sans-serif" font-size="14.00">dependencies</text>
<g id="clust1" class="cluster">
<title>cluster_AppModule</title>
<polygon fill="none" stroke="black" stroke-dasharray="1,5" points="8,-32.8 8,-157.8 2481,-157.8 2481,-32.8 8,-32.8"/>
</g>
<g id="clust6" class="cluster">
<title>cluster_AppModule_providers</title>
<polygon fill="none" stroke="black" points="965,-40.8 965,-92.8 2473,-92.8 2473,-40.8 965,-40.8"/>
</g>
<g id="clust3" class="cluster">
<title>cluster_AppModule_imports</title>
<polygon fill="none" stroke="black" points="16,-40.8 16,-92.8 957,-92.8 957,-40.8 16,-40.8"/>
</g>
<!-- AuthModule -->
<g id="node1" class="node">
<title>AuthModule</title>
<polygon fill="#8dd3c7" stroke="black" points="948.55,-84.8 945.55,-88.8 924.55,-88.8 921.55,-84.8 861.45,-84.8 861.45,-48.8 948.55,-48.8 948.55,-84.8"/>
<text text-anchor="middle" x="905" y="-62.6" font-family="Times,serif" font-size="14.00">AuthModule</text>
</g>
<!-- AppModule -->
<g id="node9" class="node">
<title>AppModule</title>
<polygon fill="#8dd3c7" stroke="black" points="1147.66,-149.8 1144.66,-153.8 1123.66,-153.8 1120.66,-149.8 1064.34,-149.8 1064.34,-113.8 1147.66,-113.8 1147.66,-149.8"/>
<text text-anchor="middle" x="1106" y="-127.6" font-family="Times,serif" font-size="14.00">AppModule</text>
</g>
<!-- AuthModule&#45;&gt;AppModule -->
<g id="edge1" class="edge">
<title>AuthModule&#45;&gt;AppModule</title>
<path fill="none" stroke="black" d="M905,-84.92C905,-99.58 905,-117.8 905,-117.8 905,-117.8 1053.86,-117.8 1053.86,-117.8"/>
<polygon fill="black" stroke="black" points="1053.86,-121.3 1063.86,-117.8 1053.86,-114.3 1053.86,-121.3"/>
</g>
<!-- CartsModule -->
<g id="node2" class="node">
<title>CartsModule</title>
<polygon fill="#8dd3c7" stroke="black" points="843.6,-84.8 840.6,-88.8 819.6,-88.8 816.6,-84.8 754.4,-84.8 754.4,-48.8 843.6,-48.8 843.6,-84.8"/>
<text text-anchor="middle" x="799" y="-62.6" font-family="Times,serif" font-size="14.00">CartsModule</text>
</g>
<!-- CartsModule&#45;&gt;AppModule -->
<g id="edge2" class="edge">
<title>CartsModule&#45;&gt;AppModule</title>
<path fill="none" stroke="black" d="M799,-84.81C799,-100.85 799,-121.8 799,-121.8 799,-121.8 1054.28,-121.8 1054.28,-121.8"/>
<polygon fill="black" stroke="black" points="1054.28,-125.3 1064.28,-121.8 1054.28,-118.3 1054.28,-125.3"/>
</g>
<!-- DeliveryModule -->
<g id="node3" class="node">
<title>DeliveryModule</title>
<polygon fill="#8dd3c7" stroke="black" points="736.03,-84.8 733.03,-88.8 712.03,-88.8 709.03,-84.8 627.97,-84.8 627.97,-48.8 736.03,-48.8 736.03,-84.8"/>
<text text-anchor="middle" x="682" y="-62.6" font-family="Times,serif" font-size="14.00">DeliveryModule</text>
</g>
<!-- DeliveryModule&#45;&gt;AppModule -->
<g id="edge3" class="edge">
<title>DeliveryModule&#45;&gt;AppModule</title>
<path fill="none" stroke="black" d="M682,-84.82C682,-102.17 682,-125.8 682,-125.8 682,-125.8 1054.18,-125.8 1054.18,-125.8"/>
<polygon fill="black" stroke="black" points="1054.18,-129.3 1064.18,-125.8 1054.18,-122.3 1054.18,-129.3"/>
</g>
<!-- PaymentsModule -->
<g id="node4" class="node">
<title>PaymentsModule</title>
<polygon fill="#8dd3c7" stroke="black" points="609.99,-84.8 606.99,-88.8 585.99,-88.8 582.99,-84.8 496.01,-84.8 496.01,-48.8 609.99,-48.8 609.99,-84.8"/>
<text text-anchor="middle" x="553" y="-62.6" font-family="Times,serif" font-size="14.00">PaymentsModule</text>
</g>
<!-- PaymentsModule&#45;&gt;AppModule -->
<g id="edge4" class="edge">
<title>PaymentsModule&#45;&gt;AppModule</title>
<path fill="none" stroke="black" d="M553,-85.02C553,-103.63 553,-129.8 553,-129.8 553,-129.8 1053.98,-129.8 1053.98,-129.8"/>
<polygon fill="black" stroke="black" points="1053.98,-133.3 1063.98,-129.8 1053.98,-126.3 1053.98,-133.3"/>
</g>
<!-- ProductsModule -->
<g id="node5" class="node">
<title>ProductsModule</title>
<polygon fill="#8dd3c7" stroke="black" points="478.05,-84.8 475.05,-88.8 454.05,-88.8 451.05,-84.8 369.95,-84.8 369.95,-48.8 478.05,-48.8 478.05,-84.8"/>
<text text-anchor="middle" x="424" y="-62.6" font-family="Times,serif" font-size="14.00">ProductsModule</text>
</g>
<!-- ProductsModule&#45;&gt;AppModule -->
<g id="edge5" class="edge">
<title>ProductsModule&#45;&gt;AppModule</title>
<path fill="none" stroke="black" d="M424,-85.11C424,-104.95 424,-133.8 424,-133.8 424,-133.8 1054.11,-133.8 1054.11,-133.8"/>
<polygon fill="black" stroke="black" points="1054.11,-137.3 1064.11,-133.8 1054.11,-130.3 1054.11,-137.3"/>
</g>
<!-- ReviewsModule -->
<g id="node6" class="node">
<title>ReviewsModule</title>
<polygon fill="#8dd3c7" stroke="black" points="351.77,-84.8 348.77,-88.8 327.77,-88.8 324.77,-84.8 244.23,-84.8 244.23,-48.8 351.77,-48.8 351.77,-84.8"/>
<text text-anchor="middle" x="298" y="-62.6" font-family="Times,serif" font-size="14.00">ReviewsModule</text>
</g>
<!-- ReviewsModule&#45;&gt;AppModule -->
<g id="edge6" class="edge">
<title>ReviewsModule&#45;&gt;AppModule</title>
<path fill="none" stroke="black" d="M298,-85.08C298,-106.12 298,-137.8 298,-137.8 298,-137.8 1054.26,-137.8 1054.26,-137.8"/>
<polygon fill="black" stroke="black" points="1054.26,-141.3 1064.26,-137.8 1054.26,-134.3 1054.26,-141.3"/>
</g>
<!-- StripeModule -->
<g id="node7" class="node">
<title>StripeModule</title>
<polygon fill="#8dd3c7" stroke="black" points="226.49,-84.8 223.49,-88.8 202.49,-88.8 199.49,-84.8 133.51,-84.8 133.51,-48.8 226.49,-48.8 226.49,-84.8"/>
<text text-anchor="middle" x="180" y="-62.6" font-family="Times,serif" font-size="14.00">StripeModule</text>
</g>
<!-- StripeModule&#45;&gt;AppModule -->
<g id="edge7" class="edge">
<title>StripeModule&#45;&gt;AppModule</title>
<path fill="none" stroke="black" d="M180,-84.96C180,-107.15 180,-141.8 180,-141.8 180,-141.8 1054.11,-141.8 1054.11,-141.8"/>
<polygon fill="black" stroke="black" points="1054.11,-145.3 1064.11,-141.8 1054.11,-138.3 1054.11,-145.3"/>
</g>
<!-- UsersModule -->
<g id="node8" class="node">
<title>UsersModule</title>
<polygon fill="#8dd3c7" stroke="black" points="115.94,-84.8 112.94,-88.8 91.94,-88.8 88.94,-84.8 24.06,-84.8 24.06,-48.8 115.94,-48.8 115.94,-84.8"/>
<text text-anchor="middle" x="70" y="-62.6" font-family="Times,serif" font-size="14.00">UsersModule</text>
</g>
<!-- UsersModule&#45;&gt;AppModule -->
<g id="edge8" class="edge">
<title>UsersModule&#45;&gt;AppModule</title>
<path fill="none" stroke="black" d="M70,-85.12C70,-108.46 70,-145.8 70,-145.8 70,-145.8 1054.1,-145.8 1054.1,-145.8"/>
<polygon fill="black" stroke="black" points="1054.1,-149.3 1064.1,-145.8 1054.1,-142.3 1054.1,-149.3"/>
</g>
<!-- AppService -->
<g id="node10" class="node">
<title>AppService</title>
<ellipse fill="#fdb462" stroke="black" cx="2408" cy="-66.8" rx="56.75" ry="18"/>
<text text-anchor="middle" x="2408" y="-62.6" font-family="Times,serif" font-size="14.00">AppService</text>
</g>
<!-- AppService&#45;&gt;AppModule -->
<g id="edge9" class="edge">
<title>AppService&#45;&gt;AppModule</title>
<path fill="none" stroke="black" d="M2408,-85.12C2408,-108.46 2408,-145.8 2408,-145.8 2408,-145.8 1157.85,-145.8 1157.85,-145.8"/>
<polygon fill="black" stroke="black" points="1157.85,-142.3 1147.85,-145.8 1157.85,-149.3 1157.85,-142.3"/>
</g>
<!-- AuthService -->
<g id="node11" class="node">
<title>AuthService</title>
<ellipse fill="#fdb462" stroke="black" cx="2274" cy="-66.8" rx="59.11" ry="18"/>
<text text-anchor="middle" x="2274" y="-62.6" font-family="Times,serif" font-size="14.00">AuthService</text>
</g>
<!-- AuthService&#45;&gt;AppModule -->
<g id="edge10" class="edge">
<title>AuthService&#45;&gt;AppModule</title>
<path fill="none" stroke="black" d="M2274,-84.96C2274,-107.15 2274,-141.8 2274,-141.8 2274,-141.8 1157.91,-141.8 1157.91,-141.8"/>
<polygon fill="black" stroke="black" points="1157.91,-138.3 1147.91,-141.8 1157.91,-145.3 1157.91,-138.3"/>
</g>
<!-- CartsService -->
<g id="node12" class="node">
<title>CartsService</title>
<ellipse fill="#fdb462" stroke="black" cx="2136" cy="-66.8" rx="60.26" ry="18"/>
<text text-anchor="middle" x="2136" y="-62.6" font-family="Times,serif" font-size="14.00">CartsService</text>
</g>
<!-- CartsService&#45;&gt;AppModule -->
<g id="edge11" class="edge">
<title>CartsService&#45;&gt;AppModule</title>
<path fill="none" stroke="black" d="M2136,-85.08C2136,-106.12 2136,-137.8 2136,-137.8 2136,-137.8 1157.97,-137.8 1157.97,-137.8"/>
<polygon fill="black" stroke="black" points="1157.97,-134.3 1147.97,-137.8 1157.97,-141.3 1157.97,-134.3"/>
</g>
<!-- DeliveryService -->
<g id="node13" class="node">
<title>DeliveryService</title>
<ellipse fill="#fdb462" stroke="black" cx="1984" cy="-66.8" rx="73.56" ry="18"/>
<text text-anchor="middle" x="1984" y="-62.6" font-family="Times,serif" font-size="14.00">DeliveryService</text>
</g>
<!-- DeliveryService&#45;&gt;AppModule -->
<g id="edge12" class="edge">
<title>DeliveryService&#45;&gt;AppModule</title>
<path fill="none" stroke="black" d="M1984,-85.11C1984,-104.95 1984,-133.8 1984,-133.8 1984,-133.8 1157.76,-133.8 1157.76,-133.8"/>
<polygon fill="black" stroke="black" points="1157.76,-130.3 1147.76,-133.8 1157.76,-137.3 1157.76,-130.3"/>
</g>
<!-- GoogleStrategy -->
<g id="node14" class="node">
<title>GoogleStrategy</title>
<ellipse fill="#fdb462" stroke="black" cx="1821" cy="-66.8" rx="71.79" ry="18"/>
<text text-anchor="middle" x="1821" y="-62.6" font-family="Times,serif" font-size="14.00">GoogleStrategy</text>
</g>
<!-- GoogleStrategy&#45;&gt;AppModule -->
<g id="edge13" class="edge">
<title>GoogleStrategy&#45;&gt;AppModule</title>
<path fill="none" stroke="black" d="M1821,-85.02C1821,-103.63 1821,-129.8 1821,-129.8 1821,-129.8 1157.79,-129.8 1157.79,-129.8"/>
<polygon fill="black" stroke="black" points="1157.79,-126.3 1147.79,-129.8 1157.79,-133.3 1157.79,-126.3"/>
</g>
<!-- PaymentsService -->
<g id="node15" class="node">
<title>PaymentsService</title>
<ellipse fill="#fdb462" stroke="black" cx="1654" cy="-66.8" rx="77.59" ry="18"/>
<text text-anchor="middle" x="1654" y="-62.6" font-family="Times,serif" font-size="14.00">PaymentsService</text>
</g>
<!-- PaymentsService&#45;&gt;AppModule -->
<g id="edge14" class="edge">
<title>PaymentsService&#45;&gt;AppModule</title>
<path fill="none" stroke="black" d="M1654,-84.82C1654,-102.17 1654,-125.8 1654,-125.8 1654,-125.8 1158.09,-125.8 1158.09,-125.8"/>
<polygon fill="black" stroke="black" points="1158.09,-122.3 1148.09,-125.8 1158.09,-129.3 1158.09,-122.3"/>
</g>
<!-- PrismaService -->
<g id="node16" class="node">
<title>PrismaService</title>
<ellipse fill="#fdb462" stroke="black" cx="1492" cy="-66.8" rx="66.64" ry="18"/>
<text text-anchor="middle" x="1492" y="-62.6" font-family="Times,serif" font-size="14.00">PrismaService</text>
</g>
<!-- PrismaService&#45;&gt;AppModule -->
<g id="edge15" class="edge">
<title>PrismaService&#45;&gt;AppModule</title>
<path fill="none" stroke="black" d="M1492,-84.81C1492,-100.85 1492,-121.8 1492,-121.8 1492,-121.8 1157.68,-121.8 1157.68,-121.8"/>
<polygon fill="black" stroke="black" points="1157.68,-118.3 1147.68,-121.8 1157.68,-125.3 1157.68,-118.3"/>
</g>
<!-- ProductsService -->
<g id="node17" class="node">
<title>ProductsService</title>
<ellipse fill="#fdb462" stroke="black" cx="1333" cy="-66.8" rx="73.59" ry="18"/>
<text text-anchor="middle" x="1333" y="-62.6" font-family="Times,serif" font-size="14.00">ProductsService</text>
</g>
<!-- ProductsService&#45;&gt;AppModule -->
<g id="edge16" class="edge">
<title>ProductsService&#45;&gt;AppModule</title>
<path fill="none" stroke="black" d="M1333,-84.92C1333,-99.58 1333,-117.8 1333,-117.8 1333,-117.8 1157.9,-117.8 1157.9,-117.8"/>
<polygon fill="black" stroke="black" points="1157.9,-114.3 1147.9,-117.8 1157.9,-121.3 1157.9,-114.3"/>
</g>
<!-- StripeService -->
<g id="node18" class="node">
<title>StripeService</title>
<ellipse fill="#fdb462" stroke="black" cx="1178" cy="-66.8" rx="63.12" ry="18"/>
<text text-anchor="middle" x="1178" y="-62.6" font-family="Times,serif" font-size="14.00">StripeService</text>
</g>
<!-- StripeService&#45;&gt;AppModule -->
<g id="edge17" class="edge">
<title>StripeService&#45;&gt;AppModule</title>
<path fill="none" stroke="black" d="M1131.39,-79.03C1131.39,-79.03 1131.39,-103.48 1131.39,-103.48"/>
<polygon fill="black" stroke="black" points="1127.89,-103.48 1131.39,-113.48 1134.89,-103.48 1127.89,-103.48"/>
</g>
<!-- UsersService -->
<g id="node19" class="node">
<title>UsersService</title>
<ellipse fill="#fdb462" stroke="black" cx="1035" cy="-66.8" rx="61.97" ry="18"/>
<text text-anchor="middle" x="1035" y="-62.6" font-family="Times,serif" font-size="14.00">UsersService</text>
</g>
<!-- UsersService&#45;&gt;AppModule -->
<g id="edge18" class="edge">
<title>UsersService&#45;&gt;AppModule</title>
<path fill="none" stroke="black" d="M1080.58,-79.03C1080.58,-79.03 1080.58,-103.48 1080.58,-103.48"/>
<polygon fill="black" stroke="black" points="1077.08,-103.48 1080.58,-113.48 1084.08,-103.48 1077.08,-103.48"/>
</g>
</g>
</svg>
