<?xml version="1.0" encoding="UTF-8" standalone="no"?>
<!DOCTYPE svg PUBLIC "-//W3C//DTD SVG 1.1//EN"
 "http://www.w3.org/Graphics/SVG/1.1/DTD/svg11.dtd">
<!-- Generated by graphviz version 5.0.0 (20220707.1540)
 -->
<!-- Title: dependencies Pages: 1 -->
<svg width="946pt" height="174pt"
 viewBox="0.00 0.00 946.00 173.80" xmlns="http://www.w3.org/2000/svg" xmlns:xlink="http://www.w3.org/1999/xlink">
<g id="graph0" class="graph" transform="scale(1 1) rotate(0) translate(4 169.8)">
<title>dependencies</title>
<polygon fill="white" stroke="transparent" points="-4,4 -4,-169.8 942,-169.8 942,4 -4,4"/>
<text text-anchor="middle" x="469" y="-8.2" font-family="sans-serif" font-size="14.00">dependencies</text>
<g id="clust1" class="cluster">
<title>cluster_StripeModule</title>
<polygon fill="none" stroke="black" stroke-dasharray="1,5" points="8,-32.8 8,-157.8 930,-157.8 930,-32.8 8,-32.8"/>
</g>
<g id="clust6" class="cluster">
<title>cluster_StripeModule_providers</title>
<polygon fill="none" stroke="black" points="16,-40.8 16,-92.8 922,-92.8 922,-40.8 16,-40.8"/>
</g>
<!-- CartsService -->
<g id="node1" class="node">
<title>CartsService</title>
<ellipse fill="#fdb462" stroke="black" cx="854" cy="-66.8" rx="60.26" ry="18"/>
<text text-anchor="middle" x="854" y="-62.6" font-family="Times,serif" font-size="14.00">CartsService</text>
</g>
<!-- StripeModule -->
<g id="node7" class="node">
<title>StripeModule</title>
<polygon fill="#8dd3c7" stroke="black" points="589.49,-149.8 586.49,-153.8 565.49,-153.8 562.49,-149.8 496.51,-149.8 496.51,-113.8 589.49,-113.8 589.49,-149.8"/>
<text text-anchor="middle" x="543" y="-127.6" font-family="Times,serif" font-size="14.00">StripeModule</text>
</g>
<!-- CartsService&#45;&gt;StripeModule -->
<g id="edge1" class="edge">
<title>CartsService&#45;&gt;StripeModule</title>
<path fill="none" stroke="black" d="M874.13,-83.96C874.13,-105.82 874.13,-140.8 874.13,-140.8 874.13,-140.8 599.74,-140.8 599.74,-140.8"/>
<polygon fill="black" stroke="black" points="599.74,-137.3 589.74,-140.8 599.74,-144.3 599.74,-137.3"/>
</g>
<!-- CartsService&#45;&gt;StripeModule -->
<g id="edge2" class="edge">
<title>CartsService&#45;&gt;StripeModule</title>
<path fill="none" stroke="black" d="M833.87,-83.88C833.87,-103.14 833.87,-131.8 833.87,-131.8 833.87,-131.8 599.73,-131.8 599.73,-131.8"/>
<polygon fill="black" stroke="black" points="599.73,-128.3 589.73,-131.8 599.73,-135.3 599.73,-128.3"/>
</g>
<!-- DeliveryService -->
<g id="node2" class="node">
<title>DeliveryService</title>
<ellipse fill="#fdb462" stroke="black" cx="702" cy="-66.8" rx="73.56" ry="18"/>
<text text-anchor="middle" x="702" y="-62.6" font-family="Times,serif" font-size="14.00">DeliveryService</text>
</g>
<!-- DeliveryService&#45;&gt;StripeModule -->
<g id="edge3" class="edge">
<title>DeliveryService&#45;&gt;StripeModule</title>
<path fill="none" stroke="black" d="M702,-84.83C702,-101.2 702,-122.8 702,-122.8 702,-122.8 599.85,-122.8 599.85,-122.8"/>
<polygon fill="black" stroke="black" points="599.85,-119.3 589.85,-122.8 599.85,-126.3 599.85,-119.3"/>
</g>
<!-- PrismaService -->
<g id="node3" class="node">
<title>PrismaService</title>
<ellipse fill="#fdb462" stroke="black" cx="543" cy="-66.8" rx="66.64" ry="18"/>
<text text-anchor="middle" x="543" y="-62.6" font-family="Times,serif" font-size="14.00">PrismaService</text>
</g>
<!-- PrismaService&#45;&gt;StripeModule -->
<g id="edge4" class="edge">
<title>PrismaService&#45;&gt;StripeModule</title>
<path fill="none" stroke="black" d="M527.5,-84.56C527.5,-84.56 527.5,-103.61 527.5,-103.61"/>
<polygon fill="black" stroke="black" points="524,-103.61 527.5,-113.61 531,-103.61 524,-103.61"/>
</g>
<!-- PrismaService&#45;&gt;StripeModule -->
<g id="edge5" class="edge">
<title>PrismaService&#45;&gt;StripeModule</title>
<path fill="none" stroke="black" d="M558.5,-84.56C558.5,-84.56 558.5,-103.61 558.5,-103.61"/>
<polygon fill="black" stroke="black" points="555,-103.61 558.5,-113.61 562,-103.61 555,-103.61"/>
</g>
<!-- ProductsService -->
<g id="node4" class="node">
<title>ProductsService</title>
<ellipse fill="#fdb462" stroke="black" cx="384" cy="-66.8" rx="73.59" ry="18"/>
<text text-anchor="middle" x="384" y="-62.6" font-family="Times,serif" font-size="14.00">ProductsService</text>
</g>
<!-- ProductsService&#45;&gt;StripeModule -->
<g id="edge6" class="edge">
<title>ProductsService&#45;&gt;StripeModule</title>
<path fill="none" stroke="black" d="M384,-84.83C384,-101.2 384,-122.8 384,-122.8 384,-122.8 486.15,-122.8 486.15,-122.8"/>
<polygon fill="black" stroke="black" points="486.15,-126.3 496.15,-122.8 486.15,-119.3 486.15,-126.3"/>
</g>
<!-- StripeService -->
<g id="node5" class="node">
<title>StripeService</title>
<ellipse fill="#fdb462" stroke="black" cx="229" cy="-66.8" rx="63.12" ry="18"/>
<text text-anchor="middle" x="229" y="-62.6" font-family="Times,serif" font-size="14.00">StripeService</text>
</g>
<!-- StripeService&#45;&gt;StripeModule -->
<g id="edge7" class="edge">
<title>StripeService&#45;&gt;StripeModule</title>
<path fill="none" stroke="black" d="M229,-84.91C229,-104.14 229,-131.8 229,-131.8 229,-131.8 486.33,-131.8 486.33,-131.8"/>
<polygon fill="black" stroke="black" points="486.33,-135.3 496.33,-131.8 486.33,-128.3 486.33,-135.3"/>
</g>
<!-- UsersService -->
<g id="node6" class="node">
<title>UsersService</title>
<ellipse fill="#fdb462" stroke="black" cx="86" cy="-66.8" rx="61.97" ry="18"/>
<text text-anchor="middle" x="86" y="-62.6" font-family="Times,serif" font-size="14.00">UsersService</text>
</g>
<!-- UsersService&#45;&gt;StripeModule -->
<g id="edge8" class="edge">
<title>UsersService&#45;&gt;StripeModule</title>
<path fill="none" stroke="black" d="M86,-85.09C86,-107.01 86,-140.8 86,-140.8 86,-140.8 486.24,-140.8 486.24,-140.8"/>
<polygon fill="black" stroke="black" points="486.24,-144.3 496.24,-140.8 486.24,-137.3 486.24,-144.3"/>
</g>
</g>
</svg>
