<?xml version="1.0" encoding="UTF-8" standalone="no"?>
<!DOCTYPE svg PUBLIC "-//W3C//DTD SVG 1.1//EN"
 "http://www.w3.org/Graphics/SVG/1.1/DTD/svg11.dtd">
<!-- Generated by graphviz version 5.0.0 (20220707.1540)
 -->
<!-- Title: dependencies Pages: 1 -->
<svg width="354pt" height="174pt"
 viewBox="0.00 0.00 354.00 173.80" xmlns="http://www.w3.org/2000/svg" xmlns:xlink="http://www.w3.org/1999/xlink">
<g id="graph0" class="graph" transform="scale(1 1) rotate(0) translate(4 169.8)">
<title>dependencies</title>
<polygon fill="white" stroke="transparent" points="-4,4 -4,-169.8 350,-169.8 350,4 -4,4"/>
<text text-anchor="middle" x="173" y="-8.2" font-family="sans-serif" font-size="14.00">dependencies</text>
<g id="clust1" class="cluster">
<title>cluster_ReviewsModule</title>
<polygon fill="none" stroke="black" stroke-dasharray="1,5" points="8,-32.8 8,-157.8 338,-157.8 338,-32.8 8,-32.8"/>
</g>
<g id="clust6" class="cluster">
<title>cluster_ReviewsModule_providers</title>
<polygon fill="none" stroke="black" points="16,-40.8 16,-92.8 330,-92.8 330,-40.8 16,-40.8"/>
</g>
<!-- PrismaService -->
<g id="node1" class="node">
<title>PrismaService</title>
<ellipse fill="#fdb462" stroke="black" cx="255" cy="-66.8" rx="66.64" ry="18"/>
<text text-anchor="middle" x="255" y="-62.6" font-family="Times,serif" font-size="14.00">PrismaService</text>
</g>
<!-- ReviewsModule -->
<g id="node3" class="node">
<title>ReviewsModule</title>
<polygon fill="#8dd3c7" stroke="black" points="229.77,-149.8 226.77,-153.8 205.77,-153.8 202.77,-149.8 122.23,-149.8 122.23,-113.8 229.77,-113.8 229.77,-149.8"/>
<text text-anchor="middle" x="176" y="-127.6" font-family="Times,serif" font-size="14.00">ReviewsModule</text>
</g>
<!-- PrismaService&#45;&gt;ReviewsModule -->
<g id="edge1" class="edge">
<title>PrismaService&#45;&gt;ReviewsModule</title>
<path fill="none" stroke="black" d="M209.03,-79.95C209.03,-79.95 209.03,-103.49 209.03,-103.49"/>
<polygon fill="black" stroke="black" points="205.53,-103.49 209.03,-113.49 212.53,-103.49 205.53,-103.49"/>
</g>
<!-- ReviewsService -->
<g id="node2" class="node">
<title>ReviewsService</title>
<ellipse fill="#fdb462" stroke="black" cx="97" cy="-66.8" rx="73" ry="18"/>
<text text-anchor="middle" x="97" y="-62.6" font-family="Times,serif" font-size="14.00">ReviewsService</text>
</g>
<!-- ReviewsService&#45;&gt;ReviewsModule -->
<g id="edge2" class="edge">
<title>ReviewsService&#45;&gt;ReviewsModule</title>
<path fill="none" stroke="black" d="M146.18,-80.27C146.18,-80.27 146.18,-103.66 146.18,-103.66"/>
<polygon fill="black" stroke="black" points="142.68,-103.66 146.18,-113.66 149.68,-103.66 142.68,-103.66"/>
</g>
</g>
</svg>
