<?xml version="1.0" encoding="UTF-8" standalone="no"?>
<!DOCTYPE svg PUBLIC "-//W3C//DTD SVG 1.1//EN"
 "http://www.w3.org/Graphics/SVG/1.1/DTD/svg11.dtd">
<!-- Generated by graphviz version 5.0.0 (20220707.1540)
 -->
<!-- Title: dependencies Pages: 1 -->
<svg width="1793pt" height="326pt"
 viewBox="0.00 0.00 1793.00 325.80" xmlns="http://www.w3.org/2000/svg" xmlns:xlink="http://www.w3.org/1999/xlink">
<g id="graph0" class="graph" transform="scale(1 1) rotate(0) translate(4 321.8)">
<title>dependencies</title>
<polygon fill="white" stroke="transparent" points="-4,4 -4,-321.8 1789,-321.8 1789,4 -4,4"/>
<text text-anchor="middle" x="892.5" y="-8.2" font-family="sans-serif" font-size="14.00">dependencies</text>
<g id="clust1" class="cluster">
<title>cluster_AppModule</title>
<polygon fill="none" stroke="black" stroke-dasharray="1,5" points="8,-32.8 8,-233.8 1532,-233.8 1532,-32.8 8,-32.8"/>
</g>
<g id="clust3" class="cluster">
<title>cluster_AppModule_imports</title>
<polygon fill="none" stroke="black" points="505,-108.8 505,-225.8 1341,-225.8 1341,-108.8 505,-108.8"/>
</g>
<g id="clust6" class="cluster">
<title>cluster_AppModule_providers</title>
<polygon fill="none" stroke="black" points="16,-40.8 16,-92.8 1524,-92.8 1524,-40.8 16,-40.8"/>
</g>
<g id="clust7" class="cluster">
<title>cluster_AuthModule</title>
<polygon fill="none" stroke="black" stroke-dasharray="1,5" points="707,-241.8 707,-309.8 1777,-309.8 1777,-241.8 707,-241.8"/>
</g>
<g id="clust10" class="cluster">
<title>cluster_AuthModule_exports</title>
<polygon fill="none" stroke="black" points="1180,-249.8 1180,-301.8 1769,-301.8 1769,-249.8 1180,-249.8"/>
</g>
<g id="clust12" class="cluster">
<title>cluster_AuthModule_providers</title>
<polygon fill="none" stroke="black" points="715,-249.8 715,-301.8 1172,-301.8 1172,-249.8 715,-249.8"/>
</g>
<g id="clust37" class="cluster">
<title>cluster_ReviewsModule</title>
<polygon fill="none" stroke="black" stroke-dasharray="1,5" points="1540,-32.8 1540,-100.8 1718,-100.8 1718,-32.8 1540,-32.8"/>
</g>
<g id="clust42" class="cluster">
<title>cluster_ReviewsModule_providers</title>
<polygon fill="none" stroke="black" points="1548,-40.8 1548,-92.8 1710,-92.8 1710,-40.8 1548,-40.8"/>
</g>
<!-- AuthModule -->
<g id="node1" class="node">
<title>AuthModule</title>
<polygon fill="#8dd3c7" stroke="black" points="1332.55,-217.8 1329.55,-221.8 1308.55,-221.8 1305.55,-217.8 1245.45,-217.8 1245.45,-181.8 1332.55,-181.8 1332.55,-217.8"/>
<text text-anchor="middle" x="1289" y="-195.6" font-family="Times,serif" font-size="14.00">AuthModule</text>
</g>
<!-- AppModule -->
<g id="node9" class="node">
<title>AppModule</title>
<polygon fill="#8dd3c7" stroke="black" points="496.66,-217.8 493.66,-221.8 472.66,-221.8 469.66,-217.8 413.34,-217.8 413.34,-181.8 496.66,-181.8 496.66,-217.8"/>
<text text-anchor="middle" x="455" y="-195.6" font-family="Times,serif" font-size="14.00">AppModule</text>
</g>
<!-- AuthModule&#45;&gt;AppModule -->
<g id="edge1" class="edge">
<title>AuthModule&#45;&gt;AppModule</title>
<path fill="none" stroke="black" d="M1245.33,-209.8C1245.33,-209.8 506.74,-209.8 506.74,-209.8"/>
<polygon fill="black" stroke="black" points="506.74,-206.3 496.74,-209.8 506.74,-213.3 506.74,-206.3"/>
</g>
<!-- AuthService  -->
<g id="node20" class="node">
<title>AuthService </title>
<polygon fill="#fb8072" stroke="black" points="1277.98,-293.8 1188.02,-293.8 1188.02,-257.8 1277.98,-257.8 1277.98,-293.8"/>
<text text-anchor="middle" x="1233" y="-271.6" font-family="Times,serif" font-size="14.00">AuthService </text>
</g>
<!-- AuthModule&#45;&gt;AuthService  -->
<g id="edge20" class="edge">
<title>AuthModule&#45;&gt;AuthService </title>
<path fill="none" stroke="black" stroke-dasharray="5,2" d="M1261.48,-217.81C1261.48,-217.81 1261.48,-247.65 1261.48,-247.65"/>
<polygon fill="black" stroke="black" points="1257.98,-247.65 1261.48,-257.65 1264.98,-247.65 1257.98,-247.65"/>
</g>
<!-- FacebookStrategy  -->
<g id="node21" class="node">
<title>FacebookStrategy </title>
<polygon fill="#fb8072" stroke="black" points="1761.08,-293.8 1640.92,-293.8 1640.92,-257.8 1761.08,-257.8 1761.08,-293.8"/>
<text text-anchor="middle" x="1701" y="-271.6" font-family="Times,serif" font-size="14.00">FacebookStrategy </text>
</g>
<!-- AuthModule&#45;&gt;FacebookStrategy  -->
<g id="edge21" class="edge">
<title>AuthModule&#45;&gt;FacebookStrategy </title>
<path fill="none" stroke="black" stroke-dasharray="5,2" d="M1332.88,-199.8C1433.34,-199.8 1671.48,-199.8 1671.48,-199.8 1671.48,-199.8 1671.48,-247.79 1671.48,-247.79"/>
<polygon fill="black" stroke="black" points="1667.98,-247.79 1671.48,-257.79 1674.98,-247.79 1667.98,-247.79"/>
</g>
<!-- GoogleStrategy  -->
<g id="node22" class="node">
<title>GoogleStrategy </title>
<polygon fill="#fb8072" stroke="black" points="1622.87,-293.8 1515.13,-293.8 1515.13,-257.8 1622.87,-257.8 1622.87,-293.8"/>
<text text-anchor="middle" x="1569" y="-271.6" font-family="Times,serif" font-size="14.00">GoogleStrategy </text>
</g>
<!-- AuthModule&#45;&gt;GoogleStrategy  -->
<g id="edge22" class="edge">
<title>AuthModule&#45;&gt;GoogleStrategy </title>
<path fill="none" stroke="black" stroke-dasharray="5,2" d="M1332.6,-205.8C1403.51,-205.8 1536.03,-205.8 1536.03,-205.8 1536.03,-205.8 1536.03,-247.77 1536.03,-247.77"/>
<polygon fill="black" stroke="black" points="1532.53,-247.77 1536.03,-257.77 1539.53,-247.77 1532.53,-247.77"/>
</g>
<!-- JwtStrategy  -->
<g id="node23" class="node">
<title>JwtStrategy </title>
<polygon fill="#fb8072" stroke="black" points="1497.6,-293.8 1412.4,-293.8 1412.4,-257.8 1497.6,-257.8 1497.6,-293.8"/>
<text text-anchor="middle" x="1455" y="-271.6" font-family="Times,serif" font-size="14.00">JwtStrategy </text>
</g>
<!-- AuthModule&#45;&gt;JwtStrategy  -->
<g id="edge23" class="edge">
<title>AuthModule&#45;&gt;JwtStrategy </title>
<path fill="none" stroke="black" stroke-dasharray="5,2" d="M1332.61,-211.8C1381.8,-211.8 1455,-211.8 1455,-211.8 1455,-211.8 1455,-247.63 1455,-247.63"/>
<polygon fill="black" stroke="black" points="1451.5,-247.63 1455,-257.63 1458.5,-247.63 1451.5,-247.63"/>
</g>
<!-- LocalStrategy  -->
<g id="node24" class="node">
<title>LocalStrategy </title>
<polygon fill="#fb8072" stroke="black" points="1394.02,-293.8 1295.98,-293.8 1295.98,-257.8 1394.02,-257.8 1394.02,-293.8"/>
<text text-anchor="middle" x="1345" y="-271.6" font-family="Times,serif" font-size="14.00">LocalStrategy </text>
</g>
<!-- AuthModule&#45;&gt;LocalStrategy  -->
<g id="edge24" class="edge">
<title>AuthModule&#45;&gt;LocalStrategy </title>
<path fill="none" stroke="black" stroke-dasharray="5,2" d="M1314.38,-217.81C1314.38,-217.81 1314.38,-247.65 1314.38,-247.65"/>
<polygon fill="black" stroke="black" points="1310.88,-247.65 1314.38,-257.65 1317.88,-247.65 1310.88,-247.65"/>
</g>
<!-- CartsModule -->
<g id="node2" class="node">
<title>CartsModule</title>
<polygon fill="#8dd3c7" stroke="black" points="1080.6,-152.8 1077.6,-156.8 1056.6,-156.8 1053.6,-152.8 991.4,-152.8 991.4,-116.8 1080.6,-116.8 1080.6,-152.8"/>
<text text-anchor="middle" x="1036" y="-130.6" font-family="Times,serif" font-size="14.00">CartsModule</text>
</g>
<!-- CartsModule&#45;&gt;AppModule -->
<g id="edge2" class="edge">
<title>CartsModule&#45;&gt;AppModule</title>
<path fill="none" stroke="black" d="M1041.4,-152.8C1041.4,-170.48 1041.4,-194.8 1041.4,-194.8 1041.4,-194.8 506.7,-194.8 506.7,-194.8"/>
<polygon fill="black" stroke="black" points="506.7,-191.3 496.7,-194.8 506.7,-198.3 506.7,-191.3"/>
</g>
<!-- DeliveryModule -->
<g id="node3" class="node">
<title>DeliveryModule</title>
<polygon fill="#8dd3c7" stroke="black" points="753.03,-152.8 750.03,-156.8 729.03,-156.8 726.03,-152.8 644.97,-152.8 644.97,-116.8 753.03,-116.8 753.03,-152.8"/>
<text text-anchor="middle" x="699" y="-130.6" font-family="Times,serif" font-size="14.00">DeliveryModule</text>
</g>
<!-- DeliveryModule&#45;&gt;AppModule -->
<g id="edge3" class="edge">
<title>DeliveryModule&#45;&gt;AppModule</title>
<path fill="none" stroke="black" d="M683.77,-152.99C683.77,-167.98 683.77,-186.8 683.77,-186.8 683.77,-186.8 506.69,-186.8 506.69,-186.8"/>
<polygon fill="black" stroke="black" points="506.69,-183.3 496.69,-186.8 506.69,-190.3 506.69,-183.3"/>
</g>
<!-- PaymentsModule -->
<g id="node4" class="node">
<title>PaymentsModule</title>
<polygon fill="#8dd3c7" stroke="black" points="626.99,-152.8 623.99,-156.8 602.99,-156.8 599.99,-152.8 513.01,-152.8 513.01,-116.8 626.99,-116.8 626.99,-152.8"/>
<text text-anchor="middle" x="570" y="-130.6" font-family="Times,serif" font-size="14.00">PaymentsModule</text>
</g>
<!-- PaymentsModule&#45;&gt;AppModule -->
<g id="edge4" class="edge">
<title>PaymentsModule&#45;&gt;AppModule</title>
<path fill="none" stroke="black" d="M512.79,-143.8C499.68,-143.8 489.51,-143.8 489.51,-143.8 489.51,-143.8 489.51,-171.77 489.51,-171.77"/>
<polygon fill="black" stroke="black" points="486.01,-171.77 489.51,-181.77 493.01,-171.77 486.01,-171.77"/>
</g>
<!-- ProductsModule -->
<g id="node5" class="node">
<title>ProductsModule</title>
<polygon fill="#8dd3c7" stroke="black" points="1207.05,-152.8 1204.05,-156.8 1183.05,-156.8 1180.05,-152.8 1098.95,-152.8 1098.95,-116.8 1207.05,-116.8 1207.05,-152.8"/>
<text text-anchor="middle" x="1153" y="-130.6" font-family="Times,serif" font-size="14.00">ProductsModule</text>
</g>
<!-- ProductsModule&#45;&gt;AppModule -->
<g id="edge5" class="edge">
<title>ProductsModule&#45;&gt;AppModule</title>
<path fill="none" stroke="black" d="M1120.4,-153.07C1120.4,-171.36 1120.4,-196.8 1120.4,-196.8 1120.4,-196.8 506.88,-196.8 506.88,-196.8"/>
<polygon fill="black" stroke="black" points="506.88,-193.3 496.88,-196.8 506.88,-200.3 506.88,-193.3"/>
</g>
<!-- ReviewsModule -->
<g id="node6" class="node">
<title>ReviewsModule</title>
<polygon fill="#8dd3c7" stroke="black" points="1332.77,-152.8 1329.77,-156.8 1308.77,-156.8 1305.77,-152.8 1225.23,-152.8 1225.23,-116.8 1332.77,-116.8 1332.77,-152.8"/>
<text text-anchor="middle" x="1279" y="-130.6" font-family="Times,serif" font-size="14.00">ReviewsModule</text>
</g>
<!-- ReviewsModule&#45;&gt;AppModule -->
<g id="edge6" class="edge">
<title>ReviewsModule&#45;&gt;AppModule</title>
<path fill="none" stroke="black" d="M1235.17,-152.97C1235.17,-171.89 1235.17,-198.8 1235.17,-198.8 1235.17,-198.8 506.67,-198.8 506.67,-198.8"/>
<polygon fill="black" stroke="black" points="506.67,-195.3 496.67,-198.8 506.67,-202.3 506.67,-195.3"/>
</g>
<!-- StripeModule -->
<g id="node7" class="node">
<title>StripeModule</title>
<polygon fill="#8dd3c7" stroke="black" points="864.49,-152.8 861.49,-156.8 840.49,-156.8 837.49,-152.8 771.51,-152.8 771.51,-116.8 864.49,-116.8 864.49,-152.8"/>
<text text-anchor="middle" x="818" y="-130.6" font-family="Times,serif" font-size="14.00">StripeModule</text>
</g>
<!-- StripeModule&#45;&gt;AppModule -->
<g id="edge7" class="edge">
<title>StripeModule&#45;&gt;AppModule</title>
<path fill="none" stroke="black" d="M798.74,-153.08C798.74,-168.75 798.74,-188.8 798.74,-188.8 798.74,-188.8 506.81,-188.8 506.81,-188.8"/>
<polygon fill="black" stroke="black" points="506.81,-185.3 496.81,-188.8 506.81,-192.3 506.81,-185.3"/>
</g>
<!-- UsersModule -->
<g id="node8" class="node">
<title>UsersModule</title>
<polygon fill="#8dd3c7" stroke="black" points="973.94,-152.8 970.94,-156.8 949.94,-156.8 946.94,-152.8 882.06,-152.8 882.06,-116.8 973.94,-116.8 973.94,-152.8"/>
<text text-anchor="middle" x="928" y="-130.6" font-family="Times,serif" font-size="14.00">UsersModule</text>
</g>
<!-- UsersModule&#45;&gt;AuthModule -->
<g id="edge19" class="edge">
<title>UsersModule&#45;&gt;AuthModule</title>
<path fill="none" stroke="black" d="M943.24,-153.08C943.24,-174.12 943.24,-205.8 943.24,-205.8 943.24,-205.8 1235.21,-205.8 1235.21,-205.8"/>
<polygon fill="black" stroke="black" points="1235.21,-209.3 1245.21,-205.8 1235.21,-202.3 1235.21,-209.3"/>
</g>
<!-- UsersModule&#45;&gt;AppModule -->
<g id="edge8" class="edge">
<title>UsersModule&#45;&gt;AppModule</title>
<path fill="none" stroke="black" d="M912.76,-152.83C912.76,-169.86 912.76,-192.8 912.76,-192.8 912.76,-192.8 506.84,-192.8 506.84,-192.8"/>
<polygon fill="black" stroke="black" points="506.84,-189.3 496.84,-192.8 506.84,-196.3 506.84,-189.3"/>
</g>
<!-- AppService -->
<g id="node10" class="node">
<title>AppService</title>
<ellipse fill="#fdb462" stroke="black" cx="81" cy="-66.8" rx="56.75" ry="18"/>
<text text-anchor="middle" x="81" y="-62.6" font-family="Times,serif" font-size="14.00">AppService</text>
</g>
<!-- AppService&#45;&gt;AppModule -->
<g id="edge9" class="edge">
<title>AppService&#45;&gt;AppModule</title>
<path fill="none" stroke="black" d="M81,-84.97C81,-122.65 81,-205.8 81,-205.8 81,-205.8 403.19,-205.8 403.19,-205.8"/>
<polygon fill="black" stroke="black" points="403.19,-209.3 413.19,-205.8 403.19,-202.3 403.19,-209.3"/>
</g>
<!-- AuthService -->
<g id="node11" class="node">
<title>AuthService</title>
<ellipse fill="#fdb462" stroke="black" cx="1457" cy="-66.8" rx="59.11" ry="18"/>
<text text-anchor="middle" x="1457" y="-62.6" font-family="Times,serif" font-size="14.00">AuthService</text>
</g>
<!-- AuthService&#45;&gt;AuthModule -->
<g id="edge25" class="edge">
<title>AuthService&#45;&gt;AuthModule</title>
<path fill="none" stroke="black" d="M1408.57,-77.19C1408.57,-107.52 1408.57,-193.8 1408.57,-193.8 1408.57,-193.8 1342.85,-193.8 1342.85,-193.8"/>
<polygon fill="black" stroke="black" points="1342.85,-190.3 1332.85,-193.8 1342.85,-197.3 1342.85,-190.3"/>
</g>
<!-- AuthService&#45;&gt;UsersModule -->
<g id="edge65" class="edge">
<title>AuthService&#45;&gt;UsersModule</title>
<path fill="none" stroke="black" d="M1404.95,-75.61C1404.95,-86.84 1404.95,-104.8 1404.95,-104.8 1404.95,-104.8 968.27,-104.8 968.27,-104.8 968.27,-104.8 968.27,-106.66 968.27,-106.66"/>
<polygon fill="black" stroke="black" points="964.77,-106.66 968.27,-116.66 971.77,-106.66 964.77,-106.66"/>
</g>
<!-- AuthService&#45;&gt;AppModule -->
<g id="edge10" class="edge">
<title>AuthService&#45;&gt;AppModule</title>
<path fill="none" stroke="black" d="M1401.32,-73.08C1401.32,-79.89 1401.32,-89.8 1401.32,-89.8 1401.32,-89.8 485.86,-89.8 485.86,-89.8 485.86,-89.8 485.86,-171.64 485.86,-171.64"/>
<polygon fill="black" stroke="black" points="482.36,-171.64 485.86,-181.64 489.36,-171.64 482.36,-171.64"/>
</g>
<!-- CartsService -->
<g id="node12" class="node">
<title>CartsService</title>
<ellipse fill="#fdb462" stroke="black" cx="841" cy="-66.8" rx="60.26" ry="18"/>
<text text-anchor="middle" x="841" y="-62.6" font-family="Times,serif" font-size="14.00">CartsService</text>
</g>
<!-- CartsService&#45;&gt;AuthModule -->
<g id="edge26" class="edge">
<title>CartsService&#45;&gt;AuthModule</title>
<path fill="none" stroke="black" d="M878.64,-81.1C878.64,-116.94 878.64,-207.8 878.64,-207.8 878.64,-207.8 1235.08,-207.8 1235.08,-207.8"/>
<polygon fill="black" stroke="black" points="1235.08,-211.3 1245.08,-207.8 1235.08,-204.3 1235.08,-211.3"/>
</g>
<!-- CartsService&#45;&gt;CartsModule -->
<g id="edge36" class="edge">
<title>CartsService&#45;&gt;CartsModule</title>
<path fill="none" stroke="black" d="M897.56,-73.21C897.56,-84.74 897.56,-107.8 897.56,-107.8 897.56,-107.8 1010.28,-107.8 1010.28,-107.8 1010.28,-107.8 1010.28,-108.68 1010.28,-108.68"/>
<polygon fill="black" stroke="black" points="1006.78,-106.64 1010.28,-116.64 1013.78,-106.64 1006.78,-106.64"/>
</g>
<!-- CartsService&#45;&gt;DeliveryModule -->
<g id="edge39" class="edge">
<title>CartsService&#45;&gt;DeliveryModule</title>
<path fill="none" stroke="black" d="M784.01,-60.8C774.3,-60.8 767.28,-60.8 767.28,-60.8 767.28,-60.8 767.28,-134.8 767.28,-134.8 767.28,-134.8 763.13,-134.8 763.13,-134.8"/>
<polygon fill="black" stroke="black" points="763.13,-131.3 753.13,-134.8 763.13,-138.3 763.13,-131.3"/>
</g>
<!-- CartsService&#45;&gt;PaymentsModule -->
<g id="edge46" class="edge">
<title>CartsService&#45;&gt;PaymentsModule</title>
<path fill="none" stroke="black" d="M801.59,-80.62C801.59,-87.26 801.59,-93.8 801.59,-93.8 801.59,-93.8 622.89,-93.8 622.89,-93.8 622.89,-93.8 622.89,-106.7 622.89,-106.7"/>
<polygon fill="black" stroke="black" points="619.39,-106.7 622.89,-116.7 626.39,-106.7 619.39,-106.7"/>
</g>
<!-- CartsService&#45;&gt;StripeModule -->
<g id="edge57" class="edge">
<title>CartsService&#45;&gt;StripeModule</title>
<path fill="none" stroke="black" d="M812.08,-82.92C812.08,-82.92 812.08,-106.4 812.08,-106.4"/>
<polygon fill="black" stroke="black" points="808.58,-106.4 812.08,-116.4 815.58,-106.4 808.58,-106.4"/>
</g>
<!-- CartsService&#45;&gt;StripeModule -->
<g id="edge58" class="edge">
<title>CartsService&#45;&gt;StripeModule</title>
<path fill="none" stroke="black" d="M822.56,-83.96C822.56,-83.96 822.56,-106.45 822.56,-106.45"/>
<polygon fill="black" stroke="black" points="819.06,-106.45 822.56,-116.45 826.06,-106.45 819.06,-106.45"/>
</g>
<!-- CartsService&#45;&gt;UsersModule -->
<g id="edge66" class="edge">
<title>CartsService&#45;&gt;UsersModule</title>
<path fill="none" stroke="black" d="M893.74,-75.69C893.74,-75.69 893.74,-106.71 893.74,-106.71"/>
<polygon fill="black" stroke="black" points="890.24,-106.71 893.74,-116.71 897.24,-106.71 890.24,-106.71"/>
</g>
<!-- CartsService&#45;&gt;AppModule -->
<g id="edge11" class="edge">
<title>CartsService&#45;&gt;AppModule</title>
<path fill="none" stroke="black" d="M875.01,-82C875.01,-115.12 875.01,-190.8 875.01,-190.8 875.01,-190.8 506.81,-190.8 506.81,-190.8"/>
<polygon fill="black" stroke="black" points="506.81,-187.3 496.81,-190.8 506.81,-194.3 506.81,-187.3"/>
</g>
<!-- DeliveryService -->
<g id="node13" class="node">
<title>DeliveryService</title>
<ellipse fill="#fdb462" stroke="black" cx="545" cy="-66.8" rx="73.56" ry="18"/>
<text text-anchor="middle" x="545" y="-62.6" font-family="Times,serif" font-size="14.00">DeliveryService</text>
</g>
<!-- DeliveryService&#45;&gt;AuthModule -->
<g id="edge27" class="edge">
<title>DeliveryService&#45;&gt;AuthModule</title>
<path fill="none" stroke="black" d="M504.92,-82.15C504.92,-111.07 504.92,-170.8 504.92,-170.8 504.92,-170.8 1289,-170.8 1289,-170.8 1289,-170.8 1289,-171.88 1289,-171.88"/>
<polygon fill="black" stroke="black" points="1285.5,-171.6 1289,-181.6 1292.5,-171.6 1285.5,-171.6"/>
</g>
<!-- DeliveryService&#45;&gt;DeliveryModule -->
<g id="edge40" class="edge">
<title>DeliveryService&#45;&gt;DeliveryModule</title>
<path fill="none" stroke="black" d="M619.14,-66.8C626.87,-66.8 631.97,-66.8 631.97,-66.8 631.97,-66.8 631.97,-128.8 631.97,-128.8 631.97,-128.8 634.89,-128.8 634.89,-128.8"/>
<polygon fill="black" stroke="black" points="634.89,-132.3 644.89,-128.8 634.89,-125.3 634.89,-132.3"/>
</g>
<!-- DeliveryService&#45;&gt;PaymentsModule -->
<g id="edge47" class="edge">
<title>DeliveryService&#45;&gt;PaymentsModule</title>
<path fill="none" stroke="black" d="M530.63,-84.67C530.63,-84.67 530.63,-106.34 530.63,-106.34"/>
<polygon fill="black" stroke="black" points="527.13,-106.34 530.63,-116.34 534.13,-106.34 527.13,-106.34"/>
</g>
<!-- DeliveryService&#45;&gt;StripeModule -->
<g id="edge59" class="edge">
<title>DeliveryService&#45;&gt;StripeModule</title>
<path fill="none" stroke="black" d="M583.52,-82.25C583.52,-96.28 583.52,-114.8 583.52,-114.8 583.52,-114.8 774.54,-114.8 774.54,-114.8 774.54,-114.8 774.54,-114.98 774.54,-114.98"/>
<polygon fill="black" stroke="black" points="771.04,-106.65 774.54,-116.65 778.04,-106.65 771.04,-106.65"/>
</g>
<!-- DeliveryService&#45;&gt;UsersModule -->
<g id="edge67" class="edge">
<title>DeliveryService&#45;&gt;UsersModule</title>
<path fill="none" stroke="black" d="M601.15,-78.62C601.15,-91.96 601.15,-111.8 601.15,-111.8 601.15,-111.8 886.1,-111.8 886.1,-111.8 886.1,-111.8 886.1,-112.29 886.1,-112.29"/>
<polygon fill="black" stroke="black" points="882.6,-106.68 886.1,-116.68 889.6,-106.68 882.6,-106.68"/>
</g>
<!-- DeliveryService&#45;&gt;AppModule -->
<g id="edge12" class="edge">
<title>DeliveryService&#45;&gt;AppModule</title>
<path fill="none" stroke="black" d="M474.88,-72.51C474.88,-72.51 474.88,-171.59 474.88,-171.59"/>
<polygon fill="black" stroke="black" points="471.38,-171.59 474.88,-181.59 478.38,-171.59 471.38,-171.59"/>
</g>
<!-- GoogleStrategy -->
<g id="node14" class="node">
<title>GoogleStrategy</title>
<ellipse fill="#fdb462" stroke="black" cx="1308" cy="-66.8" rx="71.79" ry="18"/>
<text text-anchor="middle" x="1308" y="-62.6" font-family="Times,serif" font-size="14.00">GoogleStrategy</text>
</g>
<!-- GoogleStrategy&#45;&gt;AuthModule -->
<g id="edge29" class="edge">
<title>GoogleStrategy&#45;&gt;AuthModule</title>
<path fill="none" stroke="black" d="M1356.26,-80.21C1356.26,-111.72 1356.26,-187.8 1356.26,-187.8 1356.26,-187.8 1342.74,-187.8 1342.74,-187.8"/>
<polygon fill="black" stroke="black" points="1342.74,-184.3 1332.74,-187.8 1342.74,-191.3 1342.74,-184.3"/>
</g>
<!-- GoogleStrategy&#45;&gt;AppModule -->
<g id="edge13" class="edge">
<title>GoogleStrategy&#45;&gt;AppModule</title>
<path fill="none" stroke="black" d="M1284.62,-84.14C1284.62,-86.32 1284.62,-87.8 1284.62,-87.8 1284.62,-87.8 482.2,-87.8 482.2,-87.8 482.2,-87.8 482.2,-171.31 482.2,-171.31"/>
<polygon fill="black" stroke="black" points="478.7,-171.31 482.2,-181.31 485.7,-171.31 478.7,-171.31"/>
</g>
<!-- PaymentsService -->
<g id="node15" class="node">
<title>PaymentsService</title>
<ellipse fill="#fdb462" stroke="black" cx="233" cy="-66.8" rx="77.59" ry="18"/>
<text text-anchor="middle" x="233" y="-62.6" font-family="Times,serif" font-size="14.00">PaymentsService</text>
</g>
<!-- PaymentsService&#45;&gt;PaymentsModule -->
<g id="edge48" class="edge">
<title>PaymentsService&#45;&gt;PaymentsModule</title>
<path fill="none" stroke="black" d="M258.85,-83.96C258.85,-104.1 258.85,-134.8 258.85,-134.8 258.85,-134.8 502.93,-134.8 502.93,-134.8"/>
<polygon fill="black" stroke="black" points="502.93,-138.3 512.93,-134.8 502.93,-131.3 502.93,-138.3"/>
</g>
<!-- PaymentsService&#45;&gt;AppModule -->
<g id="edge14" class="edge">
<title>PaymentsService&#45;&gt;AppModule</title>
<path fill="none" stroke="black" d="M207.15,-83.93C207.15,-118.59 207.15,-193.8 207.15,-193.8 207.15,-193.8 403.24,-193.8 403.24,-193.8"/>
<polygon fill="black" stroke="black" points="403.24,-197.3 413.24,-193.8 403.24,-190.3 403.24,-197.3"/>
</g>
<!-- PrismaService -->
<g id="node16" class="node">
<title>PrismaService</title>
<ellipse fill="#fdb462" stroke="black" cx="1152" cy="-66.8" rx="66.64" ry="18"/>
<text text-anchor="middle" x="1152" y="-62.6" font-family="Times,serif" font-size="14.00">PrismaService</text>
</g>
<!-- PrismaService&#45;&gt;AuthModule -->
<g id="edge32" class="edge">
<title>PrismaService&#45;&gt;AuthModule</title>
<path fill="none" stroke="black" d="M1211.12,-75.24C1211.12,-104.8 1211.12,-201.8 1211.12,-201.8 1211.12,-201.8 1235.05,-201.8 1235.05,-201.8"/>
<polygon fill="black" stroke="black" points="1235.05,-205.3 1245.05,-201.8 1235.05,-198.3 1235.05,-205.3"/>
</g>
<!-- PrismaService&#45;&gt;CartsModule -->
<g id="edge37" class="edge">
<title>PrismaService&#45;&gt;CartsModule</title>
<path fill="none" stroke="black" d="M1084.89,-66.8C1078.12,-66.8 1073.67,-66.8 1073.67,-66.8 1073.67,-66.8 1073.67,-106.58 1073.67,-106.58"/>
<polygon fill="black" stroke="black" points="1070.17,-106.58 1073.67,-116.58 1077.17,-106.58 1070.17,-106.58"/>
</g>
<!-- PrismaService&#45;&gt;DeliveryModule -->
<g id="edge41" class="edge">
<title>PrismaService&#45;&gt;DeliveryModule</title>
<path fill="none" stroke="black" d="M1087.44,-71.64C1087.44,-80.36 1087.44,-97.8 1087.44,-97.8 1087.44,-97.8 735.18,-97.8 735.18,-97.8 735.18,-97.8 735.18,-106.73 735.18,-106.73"/>
<polygon fill="black" stroke="black" points="731.68,-106.73 735.18,-116.73 738.68,-106.73 731.68,-106.73"/>
</g>
<!-- PrismaService&#45;&gt;PaymentsModule -->
<g id="edge49" class="edge">
<title>PrismaService&#45;&gt;PaymentsModule</title>
<path fill="none" stroke="black" d="M1125.86,-83.61C1125.86,-88.14 1125.86,-91.8 1125.86,-91.8 1125.86,-91.8 565.89,-91.8 565.89,-91.8 565.89,-91.8 565.89,-106.31 565.89,-106.31"/>
<polygon fill="black" stroke="black" points="562.39,-106.31 565.89,-116.31 569.39,-106.31 562.39,-106.31"/>
</g>
<!-- PrismaService&#45;&gt;ProductsModule -->
<g id="edge53" class="edge">
<title>PrismaService&#45;&gt;ProductsModule</title>
<path fill="none" stroke="black" d="M1180.14,-83.26C1180.14,-83.26 1180.14,-106.58 1180.14,-106.58"/>
<polygon fill="black" stroke="black" points="1176.64,-106.58 1180.14,-116.58 1183.64,-106.58 1176.64,-106.58"/>
</g>
<!-- PrismaService&#45;&gt;ReviewsModule -->
<g id="edge55" class="edge">
<title>PrismaService&#45;&gt;ReviewsModule</title>
<path fill="none" stroke="black" d="M1214.97,-73.08C1214.97,-89.91 1214.97,-134.8 1214.97,-134.8 1214.97,-134.8 1215.97,-134.8 1215.97,-134.8"/>
<polygon fill="black" stroke="black" points="1214.98,-138.3 1224.98,-134.8 1214.98,-131.3 1214.98,-138.3"/>
</g>
<!-- PrismaService&#45;&gt;StripeModule -->
<g id="edge60" class="edge">
<title>PrismaService&#45;&gt;StripeModule</title>
<path fill="none" stroke="black" d="M1091.95,-74.92C1091.95,-85.26 1091.95,-101.8 1091.95,-101.8 1091.95,-101.8 854.01,-101.8 854.01,-101.8 854.01,-101.8 854.01,-106.76 854.01,-106.76"/>
<polygon fill="black" stroke="black" points="850.51,-106.76 854.01,-116.76 857.51,-106.76 850.51,-106.76"/>
</g>
<!-- PrismaService&#45;&gt;StripeModule -->
<g id="edge61" class="edge">
<title>PrismaService&#45;&gt;StripeModule</title>
<path fill="none" stroke="black" d="M1089.7,-73.36C1089.7,-83.24 1089.7,-100.8 1089.7,-100.8 1089.7,-100.8 843.53,-100.8 843.53,-100.8 843.53,-100.8 843.53,-106.61 843.53,-106.61"/>
<polygon fill="black" stroke="black" points="840.03,-106.61 843.53,-116.61 847.03,-106.61 840.03,-106.61"/>
</g>
<!-- PrismaService&#45;&gt;UsersModule -->
<g id="edge68" class="edge">
<title>PrismaService&#45;&gt;UsersModule</title>
<path fill="none" stroke="black" d="M1094.21,-76.14C1094.21,-87.1 1094.21,-103.8 1094.21,-103.8 1094.21,-103.8 962.82,-103.8 962.82,-103.8 962.82,-103.8 962.82,-106.77 962.82,-106.77"/>
<polygon fill="black" stroke="black" points="959.32,-106.77 962.82,-116.77 966.32,-106.77 959.32,-106.77"/>
</g>
<!-- PrismaService&#45;&gt;AppModule -->
<g id="edge15" class="edge">
<title>PrismaService&#45;&gt;AppModule</title>
<path fill="none" stroke="black" d="M1096.47,-77C1096.47,-100.95 1096.47,-158.8 1096.47,-158.8 1096.47,-158.8 493.17,-158.8 493.17,-158.8 493.17,-158.8 493.17,-171.7 493.17,-171.7"/>
<polygon fill="black" stroke="black" points="489.67,-171.7 493.17,-181.7 496.67,-171.7 489.67,-171.7"/>
</g>
<!-- ProductsService -->
<g id="node17" class="node">
<title>ProductsService</title>
<ellipse fill="#fdb462" stroke="black" cx="993" cy="-66.8" rx="73.59" ry="18"/>
<text text-anchor="middle" x="993" y="-62.6" font-family="Times,serif" font-size="14.00">ProductsService</text>
</g>
<!-- ProductsService&#45;&gt;AuthModule -->
<g id="edge33" class="edge">
<title>ProductsService&#45;&gt;AuthModule</title>
<path fill="none" stroke="black" d="M980.99,-84.71C980.99,-121.85 980.99,-203.8 980.99,-203.8 980.99,-203.8 1235.2,-203.8 1235.2,-203.8"/>
<polygon fill="black" stroke="black" points="1235.2,-207.3 1245.2,-203.8 1235.2,-200.3 1235.2,-207.3"/>
</g>
<!-- ProductsService&#45;&gt;CartsModule -->
<g id="edge38" class="edge">
<title>ProductsService&#45;&gt;CartsModule</title>
<path fill="none" stroke="black" d="M1029.12,-82.57C1029.12,-82.57 1029.12,-106.71 1029.12,-106.71"/>
<polygon fill="black" stroke="black" points="1025.62,-106.71 1029.12,-116.71 1032.62,-106.71 1025.62,-106.71"/>
</g>
<!-- ProductsService&#45;&gt;DeliveryModule -->
<g id="edge42" class="edge">
<title>ProductsService&#45;&gt;DeliveryModule</title>
<path fill="none" stroke="black" d="M941.01,-79.82C941.01,-87.13 941.01,-94.8 941.01,-94.8 941.01,-94.8 699,-94.8 699,-94.8 699,-94.8 699,-106.67 699,-106.67"/>
<polygon fill="black" stroke="black" points="695.5,-106.67 699,-116.67 702.5,-106.67 695.5,-106.67"/>
</g>
<!-- ProductsService&#45;&gt;DeliveryModule -->
<g id="edge43" class="edge">
<title>ProductsService&#45;&gt;DeliveryModule</title>
<path fill="none" stroke="black" d="M946.46,-81.1C946.46,-88.82 946.46,-96.8 946.46,-96.8 946.46,-96.8 717.09,-96.8 717.09,-96.8 717.09,-96.8 717.09,-106.69 717.09,-106.69"/>
<polygon fill="black" stroke="black" points="713.59,-106.69 717.09,-116.69 720.59,-106.69 713.59,-106.69"/>
</g>
<!-- ProductsService&#45;&gt;PaymentsModule -->
<g id="edge50" class="edge">
<title>ProductsService&#45;&gt;PaymentsModule</title>
<path fill="none" stroke="black" d="M935.56,-78.24C935.56,-84.42 935.56,-90.8 935.56,-90.8 935.56,-90.8 548.26,-90.8 548.26,-90.8 548.26,-90.8 548.26,-106.65 548.26,-106.65"/>
<polygon fill="black" stroke="black" points="544.76,-106.65 548.26,-116.65 551.76,-106.65 544.76,-106.65"/>
</g>
<!-- ProductsService&#45;&gt;ProductsModule -->
<g id="edge54" class="edge">
<title>ProductsService&#45;&gt;ProductsModule</title>
<path fill="none" stroke="black" d="M1047.96,-79.14C1047.96,-90.57 1047.96,-105.8 1047.96,-105.8 1047.96,-105.8 1153,-105.8 1153,-105.8 1153,-105.8 1153,-106.88 1153,-106.88"/>
<polygon fill="black" stroke="black" points="1149.5,-106.6 1153,-116.6 1156.5,-106.6 1149.5,-106.6"/>
</g>
<!-- ProductsService&#45;&gt;StripeModule -->
<g id="edge62" class="edge">
<title>ProductsService&#45;&gt;StripeModule</title>
<path fill="none" stroke="black" d="M951.91,-82.05C951.91,-90.29 951.91,-98.8 951.91,-98.8 951.91,-98.8 833.04,-98.8 833.04,-98.8 833.04,-98.8 833.04,-106.38 833.04,-106.38"/>
<polygon fill="black" stroke="black" points="829.54,-106.38 833.04,-116.38 836.54,-106.38 829.54,-106.38"/>
</g>
<!-- ProductsService&#45;&gt;UsersModule -->
<g id="edge69" class="edge">
<title>ProductsService&#45;&gt;UsersModule</title>
<path fill="none" stroke="black" d="M957.36,-82.57C957.36,-82.57 957.36,-106.71 957.36,-106.71"/>
<polygon fill="black" stroke="black" points="953.86,-106.71 957.36,-116.71 960.86,-106.71 953.86,-106.71"/>
</g>
<!-- ProductsService&#45;&gt;AppModule -->
<g id="edge16" class="edge">
<title>ProductsService&#45;&gt;AppModule</title>
<path fill="none" stroke="black" d="M924.66,-74.02C924.66,-79.75 924.66,-86.8 924.66,-86.8 924.66,-86.8 478.54,-86.8 478.54,-86.8 478.54,-86.8 478.54,-171.64 478.54,-171.64"/>
<polygon fill="black" stroke="black" points="475.04,-171.64 478.54,-181.64 482.04,-171.64 475.04,-171.64"/>
</g>
<!-- StripeService -->
<g id="node18" class="node">
<title>StripeService</title>
<ellipse fill="#fdb462" stroke="black" cx="700" cy="-66.8" rx="63.12" ry="18"/>
<text text-anchor="middle" x="700" y="-62.6" font-family="Times,serif" font-size="14.00">StripeService</text>
</g>
<!-- StripeService&#45;&gt;AuthModule -->
<g id="edge34" class="edge">
<title>StripeService&#45;&gt;AuthModule</title>
<path fill="none" stroke="black" d="M756.53,-74.82C756.53,-98.23 756.53,-164.8 756.53,-164.8 756.53,-164.8 1310.89,-164.8 1310.89,-164.8 1310.89,-164.8 1310.89,-171.48 1310.89,-171.48"/>
<polygon fill="black" stroke="black" points="1307.39,-171.48 1310.89,-181.48 1314.39,-171.48 1307.39,-171.48"/>
</g>
<!-- StripeService&#45;&gt;DeliveryModule -->
<g id="edge44" class="edge">
<title>StripeService&#45;&gt;DeliveryModule</title>
<path fill="none" stroke="black" d="M680.91,-83.96C680.91,-83.96 680.91,-106.45 680.91,-106.45"/>
<polygon fill="black" stroke="black" points="677.41,-106.45 680.91,-116.45 684.41,-106.45 677.41,-106.45"/>
</g>
<!-- StripeService&#45;&gt;PaymentsModule -->
<g id="edge51" class="edge">
<title>StripeService&#45;&gt;PaymentsModule</title>
<path fill="none" stroke="black" d="M639.54,-72.12C639.54,-89.09 639.54,-140.8 639.54,-140.8 639.54,-140.8 637.11,-140.8 637.11,-140.8"/>
<polygon fill="black" stroke="black" points="637.11,-137.3 627.11,-140.8 637.11,-144.3 637.11,-137.3"/>
</g>
<!-- StripeService&#45;&gt;StripeModule -->
<g id="edge63" class="edge">
<title>StripeService&#45;&gt;StripeModule</title>
<path fill="none" stroke="black" d="M759.59,-72.8C770.01,-72.8 777.58,-72.8 777.58,-72.8 777.58,-72.8 777.58,-106.53 777.58,-106.53"/>
<polygon fill="black" stroke="black" points="774.08,-106.53 777.58,-116.53 781.08,-106.53 774.08,-106.53"/>
</g>
<!-- StripeService&#45;&gt;UsersModule -->
<g id="edge70" class="edge">
<title>StripeService&#45;&gt;UsersModule</title>
<path fill="none" stroke="black" d="M759.8,-72.55C759.8,-84.48 759.8,-110.8 759.8,-110.8 759.8,-110.8 889.92,-110.8 889.92,-110.8 889.92,-110.8 889.92,-111.38 889.92,-111.38"/>
<polygon fill="black" stroke="black" points="886.42,-106.61 889.92,-116.61 893.42,-106.61 886.42,-106.61"/>
</g>
<!-- StripeService&#45;&gt;AppModule -->
<g id="edge17" class="edge">
<title>StripeService&#45;&gt;AppModule</title>
<path fill="none" stroke="black" d="M642.14,-74.18C642.14,-100.01 642.14,-184.8 642.14,-184.8 642.14,-184.8 507,-184.8 507,-184.8"/>
<polygon fill="black" stroke="black" points="507,-181.3 497,-184.8 507,-188.3 507,-181.3"/>
</g>
<!-- UsersService -->
<g id="node19" class="node">
<title>UsersService</title>
<ellipse fill="#fdb462" stroke="black" cx="391" cy="-66.8" rx="61.97" ry="18"/>
<text text-anchor="middle" x="391" y="-62.6" font-family="Times,serif" font-size="14.00">UsersService</text>
</g>
<!-- UsersService&#45;&gt;AuthModule -->
<g id="edge35" class="edge">
<title>UsersService&#45;&gt;AuthModule</title>
<path fill="none" stroke="black" d="M424.55,-82.1C424.55,-112.32 424.55,-176.8 424.55,-176.8 424.55,-176.8 1267.11,-176.8 1267.11,-176.8 1267.11,-176.8 1267.11,-177.29 1267.11,-177.29"/>
<polygon fill="black" stroke="black" points="1263.61,-171.68 1267.11,-181.68 1270.61,-171.68 1263.61,-171.68"/>
</g>
<!-- UsersService&#45;&gt;DeliveryModule -->
<g id="edge45" class="edge">
<title>UsersService&#45;&gt;DeliveryModule</title>
<path fill="none" stroke="black" d="M430.23,-80.97C430.23,-95.44 430.23,-115.8 430.23,-115.8 430.23,-115.8 662.82,-115.8 662.82,-115.8 662.82,-115.8 662.82,-115.88 662.82,-115.88"/>
<polygon fill="black" stroke="black" points="659.32,-106.62 662.82,-116.62 666.32,-106.62 659.32,-106.62"/>
</g>
<!-- UsersService&#45;&gt;PaymentsModule -->
<g id="edge52" class="edge">
<title>UsersService&#45;&gt;PaymentsModule</title>
<path fill="none" stroke="black" d="M447.3,-74.51C447.3,-90.51 447.3,-125.8 447.3,-125.8 447.3,-125.8 502.96,-125.8 502.96,-125.8"/>
<polygon fill="black" stroke="black" points="502.96,-129.3 512.96,-125.8 502.96,-122.3 502.96,-129.3"/>
</g>
<!-- UsersService&#45;&gt;StripeModule -->
<g id="edge64" class="edge">
<title>UsersService&#45;&gt;StripeModule</title>
<path fill="none" stroke="black" d="M435.92,-79.37C435.92,-92.99 435.92,-112.8 435.92,-112.8 435.92,-112.8 791.11,-112.8 791.11,-112.8 791.11,-112.8 791.11,-113.18 791.11,-113.18"/>
<polygon fill="black" stroke="black" points="787.61,-106.63 791.11,-116.63 794.61,-106.63 787.61,-106.63"/>
</g>
<!-- UsersService&#45;&gt;UsersModule -->
<g id="edge71" class="edge">
<title>UsersService&#45;&gt;UsersModule</title>
<path fill="none" stroke="black" d="M441.61,-77.4C441.61,-89.84 441.61,-108.8 441.61,-108.8 441.61,-108.8 930.11,-108.8 930.11,-108.8 930.11,-108.8 930.11,-109.59 930.11,-109.59"/>
<polygon fill="black" stroke="black" points="926.61,-106.74 930.11,-116.74 933.61,-106.74 926.61,-106.74"/>
</g>
<!-- UsersService&#45;&gt;AppModule -->
<g id="edge18" class="edge">
<title>UsersService&#45;&gt;AppModule</title>
<path fill="none" stroke="black" d="M418.86,-83.11C418.86,-83.11 418.86,-171.66 418.86,-171.66"/>
<polygon fill="black" stroke="black" points="415.36,-171.66 418.86,-181.66 422.36,-171.66 415.36,-171.66"/>
</g>
<!-- FacebookStrategy -->
<g id="node25" class="node">
<title>FacebookStrategy</title>
<ellipse fill="#fdb462" stroke="black" cx="1083" cy="-275.8" rx="80.52" ry="18"/>
<text text-anchor="middle" x="1083" y="-271.6" font-family="Times,serif" font-size="14.00">FacebookStrategy</text>
</g>
<!-- FacebookStrategy&#45;&gt;AuthModule -->
<g id="edge28" class="edge">
<title>FacebookStrategy&#45;&gt;AuthModule</title>
<path fill="none" stroke="black" d="M1142.08,-263.37C1142.08,-245.79 1142.08,-215.8 1142.08,-215.8 1142.08,-215.8 1235.32,-215.8 1235.32,-215.8"/>
<polygon fill="black" stroke="black" points="1235.32,-219.3 1245.32,-215.8 1235.32,-212.3 1235.32,-219.3"/>
</g>
<!-- JwtStrategy -->
<g id="node26" class="node">
<title>JwtStrategy</title>
<ellipse fill="#fdb462" stroke="black" cx="928" cy="-275.8" rx="56.77" ry="18"/>
<text text-anchor="middle" x="928" y="-271.6" font-family="Times,serif" font-size="14.00">JwtStrategy</text>
</g>
<!-- JwtStrategy&#45;&gt;AuthModule -->
<g id="edge30" class="edge">
<title>JwtStrategy&#45;&gt;AuthModule</title>
<path fill="none" stroke="black" d="M977.36,-266.92C977.36,-249.77 977.36,-213.8 977.36,-213.8 977.36,-213.8 1235.34,-213.8 1235.34,-213.8"/>
<polygon fill="black" stroke="black" points="1235.34,-217.3 1245.34,-213.8 1235.34,-210.3 1235.34,-217.3"/>
</g>
<!-- LocalStrategy -->
<g id="node27" class="node">
<title>LocalStrategy</title>
<ellipse fill="#fdb462" stroke="black" cx="788" cy="-275.8" rx="65.4" ry="18"/>
<text text-anchor="middle" x="788" y="-271.6" font-family="Times,serif" font-size="14.00">LocalStrategy</text>
</g>
<!-- LocalStrategy&#45;&gt;AuthModule -->
<g id="edge31" class="edge">
<title>LocalStrategy&#45;&gt;AuthModule</title>
<path fill="none" stroke="black" d="M825.97,-260.96C825.97,-242.05 825.97,-211.8 825.97,-211.8 825.97,-211.8 1235.44,-211.8 1235.44,-211.8"/>
<polygon fill="black" stroke="black" points="1235.44,-215.3 1245.44,-211.8 1235.44,-208.3 1235.44,-215.3"/>
</g>
<!-- ReviewsService -->
<g id="node28" class="node">
<title>ReviewsService</title>
<ellipse fill="#fdb462" stroke="black" cx="1629" cy="-66.8" rx="73" ry="18"/>
<text text-anchor="middle" x="1629" y="-62.6" font-family="Times,serif" font-size="14.00">ReviewsService</text>
</g>
<!-- ReviewsService&#45;&gt;ReviewsModule -->
<g id="edge56" class="edge">
<title>ReviewsService&#45;&gt;ReviewsModule</title>
<path fill="none" stroke="black" d="M1589.22,-82.23C1589.22,-102.29 1589.22,-134.8 1589.22,-134.8 1589.22,-134.8 1343.04,-134.8 1343.04,-134.8"/>
<polygon fill="black" stroke="black" points="1343.04,-131.3 1333.04,-134.8 1343.04,-138.3 1343.04,-131.3"/>
</g>
</g>
</svg>
